<svg id="Ebene_1" data-name="Ebene 1" xmlns="http://www.w3.org/2000/svg" viewBox="0 0 1417.323 283.465"><defs><style>.cls-1{fill:#1d1d1b;}</style></defs><path class="cls-1" d="M0,0V283.465H1417.323V0ZM566.93,277.8H5.67V5.669H566.93Zm566.929,0H572.6V5.669h561.261Zm277.8,0H1139.528V5.669h272.126Z"/><path class="cls-1" d="M1052.479,96.013v62.434c0,.809-.541,1.078-.946.269L1015.9,95.472a2.383,2.383,0,0,0-2.026-1.078h-15.25a1.558,1.558,0,0,0-1.621,1.619v91.155a1.56,1.56,0,0,0,1.621,1.619h13.225a1.559,1.559,0,0,0,1.62-1.619v-62.3c0-.809.541-1.078.946-.271l35.629,63.107a2.378,2.378,0,0,0,2.026,1.081h15.25a1.56,1.56,0,0,0,1.621-1.619V96.013a1.558,1.558,0,0,0-1.621-1.619H1054.1a1.557,1.557,0,0,0-1.618,1.619M957.12,188.787h13.364a1.559,1.559,0,0,0,1.617-1.619V96.013a1.557,1.557,0,0,0-1.617-1.619H957.12a1.558,1.558,0,0,0-1.618,1.619v91.155a1.56,1.56,0,0,0,1.618,1.619m-53.283-16.451V96.013a1.557,1.557,0,0,0-1.618-1.619H888.856a1.557,1.557,0,0,0-1.618,1.619v91.155a1.559,1.559,0,0,0,1.618,1.619h46.023a1.56,1.56,0,0,0,1.621-1.619V174.762a1.56,1.56,0,0,0-1.621-1.619H904.647a.777.777,0,0,1-.81-.807m-87.294-62.3h12.284c10.93,0,19.7,5.8,19.7,17.8s-8.774,17.8-19.84,17.8H816.543a.777.777,0,0,1-.808-.81V110.845a.716.716,0,0,1,.808-.81m31.314,78.752h17c1.351,0,1.754-.945.946-2.023l-20.245-27.375a.777.777,0,0,1,.269-1.211c12.012-4.855,19.976-15.509,19.976-30.341,0-21.037-15.927-33.443-36.173-33.443h-28.88a1.559,1.559,0,0,0-1.621,1.619v91.155a1.56,1.56,0,0,0,1.621,1.619h13.361a1.561,1.561,0,0,0,1.62-1.619V162.087a.778.778,0,0,1,.808-.81H826.8a1.672,1.672,0,0,1,1.08.541l18.086,25.888a2.15,2.15,0,0,0,1.89,1.081M774.6,108.419V96.013a1.559,1.559,0,0,0-1.621-1.619H723.851a1.558,1.558,0,0,0-1.62,1.619v91.155a1.559,1.559,0,0,0,1.62,1.619h49.126a1.56,1.56,0,0,0,1.621-1.619V174.762a1.56,1.56,0,0,0-1.621-1.619h-33.47a.775.775,0,0,1-.81-.807V149.68a.778.778,0,0,1,.81-.809h33.47a1.558,1.558,0,0,0,1.621-1.616V134.984a1.559,1.559,0,0,0-1.621-1.619h-33.47a.715.715,0,0,1-.81-.81v-21.71a.779.779,0,0,1,.81-.81h33.47a1.558,1.558,0,0,0,1.621-1.616M669.376,173.143H655.069a.775.775,0,0,1-.808-.807V149.68a.715.715,0,0,1,.808-.809h14.307c8.774,0,13.633,4.99,13.633,12.137,0,7.281-4.859,12.135-13.633,12.135m-1.349-63.108c8.5,0,13.225,4.586,13.225,11.6s-4.722,11.733-13.225,11.733H655.069a.715.715,0,0,1-.808-.81v-21.71a.716.716,0,0,1,.808-.81Zm19.7,29.668a22.585,22.585,0,0,0,10.8-19.823c0-14.427-9.987-25.486-28.343-25.486H639.413a1.558,1.558,0,0,0-1.618,1.619v91.155a1.56,1.56,0,0,0,1.618,1.619H671.4c18.894,0,28.88-11.463,28.88-26.564,0-9.845-4.723-17.261-12.55-21.442-.541-.405-.541-.809,0-1.078"/><path class="cls-1" d="M1317.241,222.158s-4.956-32.867-7.3-46.724c.661-.135,1.023-.215,1.023-.215a3.052,3.052,0,0,0,2.019-4.532c-5.608-9.656-7.614-21.687-7.614-33.645a64.448,64.448,0,0,1,3.5-21.05c.129-.379.267-.754.4-1.128.08-.23.244-.738.276-.817A61.775,61.775,0,0,0,1314.6,95.62a52.45,52.45,0,0,0-4.1-25.276c-.148-.273-.3-.539-.454-.8a6.591,6.591,0,0,0,.859-7.976c-1.833-3.162-5.6-4.414-8.4-2.792-.295.169-.991.657-1.3.882-.513-.376-.812-.565-.812-.565-.015-.01-.791-.519-1.472-.875,0,0-.255-.131-.259-.135a22.913,22.913,0,0,0-9.373-1.956,23.559,23.559,0,0,0-4.8.492,23.231,23.231,0,0,0-9.1,4.083,13.844,13.844,0,0,1-2.88.546l-3.8.182c-1.788.076-3.83-.012-3.83-.012a1.619,1.619,0,0,0-1.616,1.619c0,.08.586,5.306.588,5.323a4.3,4.3,0,0,0,1.788,3.252l.128.09a1.423,1.423,0,0,1,.6.621,5.859,5.859,0,0,0,1.842,2.621.5.5,0,0,0,.741-.215c.724-2.846,2.423.225,5.655-1.527.834-.451,1.275,1.566.926,2.446l-.3.763a5.11,5.11,0,0,1-4.02,3.177c-1.433.208-2.256.354-2.236.552.172,1.613-.02,3,1.62,3.967a3.775,3.775,0,0,0,.716.318c2.51.659,9.835,3.467.521,14.456a23.771,23.771,0,0,0-1.565,1.97,6.442,6.442,0,0,0-.515.889l-.194.4-28-10.478a6.368,6.368,0,0,1-2.447-1.99l-2.756-4.738a7.284,7.284,0,0,0-6.183-3.512,24.88,24.88,0,0,0-3.895-.013c-.833.043-1.314.238-1.491.724a5.047,5.047,0,0,0,.605,3.508l2.405,4.412c.211.313,3.24,7.088,3.24,7.088a4.986,4.986,0,0,0,1.5,2.14c.062.051,28.744,21.723,28.744,21.723L1231,136.11a3.715,3.715,0,0,1-2.848.292l-2.715-.823c-4.955-2.208-8.686-.672-10.873,1.16l-.855.812a1.439,1.439,0,0,0,.415,2.4s4.781,2.81,5.834,3.53l7.444,4.408a5.447,5.447,0,0,0,3.826.623l29.408-5.931a101.5,101.5,0,0,0,3.548,20.617,52.98,52.98,0,0,0-15.01,28.188c-1.426,7.939-.961,15.135,1.2,23.594-4.107.226-8.071.834-11.363,3.121-3.132,2.178-3.774,6.058-3.794,8l22.964.052,1.943-.011a3.3,3.3,0,0,0,3.044-2.433,16.324,16.324,0,0,0,.423-2.383,51.607,51.607,0,0,1,5.4-17.6,58.266,58.266,0,0,1,9.145-12.65,91.255,91.255,0,0,0,25.976,24.1,25.667,25.667,0,0,0-9.568,2.565,9.844,9.844,0,0,0-4.759,8.468h23.789a3.69,3.69,0,0,0,3.494-2.5,3.888,3.888,0,0,0,.123-.46c.022-.112.039-.226.05-.339A3.687,3.687,0,0,0,1317.241,222.158Z"/><path class="cls-1" d="M74.073,124.241a11.188,11.188,0,0,1-4.28-5.8l-.045-.195a.487.487,0,0,1,.35-.454l2.55-1.046a.537.537,0,0,1,.248-.051.366.366,0,0,1,.252.1.7.7,0,0,1,.15.253,7.659,7.659,0,0,0,2.872,4.2,8.19,8.19,0,0,0,4.929,1.5,7.724,7.724,0,0,0,5.474-1.8,6.711,6.711,0,0,0,.2-9.2,9.045,9.045,0,0,0-4.722-2.3l-2.55-.5a11.214,11.214,0,0,1-6.325-3.228,8.926,8.926,0,0,1-2.326-6.371,9.256,9.256,0,0,1,1.35-4.877,9.746,9.746,0,0,1,3.728-3.527,11.961,11.961,0,0,1,11.925.626,10.943,10.943,0,0,1,4,5.274.293.293,0,0,1,.051.2.494.494,0,0,1-.35.453l-2.6,1.1a.55.55,0,0,1-.247.051.337.337,0,0,1-.253-.1.6.6,0,0,1-.15-.247,7.941,7.941,0,0,0-2.774-3.7,6.979,6.979,0,0,0-4.176-1.349,6.672,6.672,0,0,0-4.826,1.7,5.751,5.751,0,0,0-1.775,4.348,5.588,5.588,0,0,0,1.4,3.9,7.089,7.089,0,0,0,4.147,2.051l2.551.5a13.733,13.733,0,0,1,6.853,3.4,9.034,9.034,0,0,1,2.7,6.9,10.2,10.2,0,0,1-1.379,5.251,9.676,9.676,0,0,1-3.946,3.7,12.86,12.86,0,0,1-6.026,1.35A11.911,11.911,0,0,1,74.073,124.241Z"/><path class="cls-1" d="M102.773,124.54a10.512,10.512,0,0,1-4.177-4.274,14.349,14.349,0,0,1-.023-12.724,10.589,10.589,0,0,1,4.05-4.251,11.773,11.773,0,0,1,11.5,0,10.632,10.632,0,0,1,4.021,4.124,12.019,12.019,0,0,1,1.453,5.928,9.515,9.515,0,0,1-.052,1.149.478.478,0,0,1-.5.4H101.4c-.4,0-.552.212-.454.649a8.207,8.207,0,0,0,2.527,5.25,7.709,7.709,0,0,0,5.423,1.947,8.82,8.82,0,0,0,6.549-2.9c.368-.368.655-.431.85-.2l1.655,1.8c.229.2.229.414,0,.649a12.789,12.789,0,0,1-4.125,2.924,12.078,12.078,0,0,1-4.929,1.023A12.307,12.307,0,0,1,102.773,124.54ZM115.7,111.39a7.605,7.605,0,0,0-2.476-4.572,7.6,7.6,0,0,0-9.7.051,7.44,7.44,0,0,0-2.47,4.573l-.051.247c0,.2.166.305.5.305H115.25Q115.844,111.994,115.7,111.39Z"/><path class="cls-1" d="M128.5,125.493h-2.648a.442.442,0,0,1-.5-.5v-22.2a.442.442,0,0,1,.5-.5h2.4a.442.442,0,0,1,.5.5v1.649c0,.137.04.218.121.252s.178-.017.276-.149a8.457,8.457,0,0,1,2.653-2.051,7.745,7.745,0,0,1,3.395-.7,7.573,7.573,0,0,1,5.751,2.149,7.653,7.653,0,0,1,2.05,5.5v15.55a.442.442,0,0,1-.5.5h-2.649a.442.442,0,0,1-.5-.5V110.04a5.107,5.107,0,0,0-1.253-3.722,4.812,4.812,0,0,0-3.6-1.275,5.507,5.507,0,0,0-3,.85,6.729,6.729,0,0,0-2.246,2.447,2.319,2.319,0,0,0-.253,1.051v15.6A.442.442,0,0,1,128.5,125.493Z"/><path class="cls-1" d="M154.295,124.465a10.918,10.918,0,0,1-4.1-4.274,13.984,13.984,0,0,1,0-12.6,10.918,10.918,0,0,1,4.1-4.274,11.277,11.277,0,0,1,5.8-1.528,9.376,9.376,0,0,1,7.548,3.1.164.164,0,0,0,.2.046.19.19,0,0,0,.1-.195v-1.953a.442.442,0,0,1,.5-.5H170.9a.442.442,0,0,1,.5.5v22.2a.442.442,0,0,1-.5.5h-2.447a.442.442,0,0,1-.5-.5V123.04a.206.206,0,0,0-.1-.2.177.177,0,0,0-.2.052,10.274,10.274,0,0,1-7.548,3.1A11.267,11.267,0,0,1,154.295,124.465Zm10.552-2.775a6.176,6.176,0,0,0,2.7-2.7,1.965,1.965,0,0,0,.2-.9v-8.4a1.965,1.965,0,0,0-.2-.9,6.819,6.819,0,0,0-2.774-2.7,8.451,8.451,0,0,0-4.125-1,7.794,7.794,0,0,0-5.974,2.425,10.065,10.065,0,0,0,0,12.747,7.793,7.793,0,0,0,5.974,2.424A8.7,8.7,0,0,0,164.847,121.69Z"/><path class="cls-1" d="M180.547,93.244l2.7-1.454a.6.6,0,0,1,.247-.046c.236,0,.35.132.35.4v9.9a.221.221,0,0,0,.253.247h2.752a.442.442,0,0,1,.5.5v2.148a.442.442,0,0,1-.5.5H184.1a.225.225,0,0,0-.253.253v19.3a.442.442,0,0,1-.5.5H180.7a.442.442,0,0,1-.5-.5v-19.3a.225.225,0,0,0-.253-.253H177.2a.442.442,0,0,1-.5-.5v-2.148a.442.442,0,0,1,.5-.5h2.746a.221.221,0,0,0,.253-.247v-8.2A.579.579,0,0,1,180.547,93.244Z"/><path class="cls-1" d="M193.622,124.54a7.81,7.81,0,0,1-2.827-4l-.046-.2a.4.4,0,0,1,.345-.4l2.4-.85.2-.052c.2,0,.351.132.448.4a4.468,4.468,0,0,0,1.729,2.5,4.656,4.656,0,0,0,2.723.9,4.53,4.53,0,0,0,3.2-1.022,3.425,3.425,0,0,0,1.1-2.626,3.073,3.073,0,0,0-1.08-2.5,6.316,6.316,0,0,0-2.97-1.253l-2-.4a6.833,6.833,0,0,1-4.05-2.275,6.411,6.411,0,0,1-1.5-4.28,6.328,6.328,0,0,1,.954-3.4,6.515,6.515,0,0,1,2.671-2.429,8.47,8.47,0,0,1,3.877-.874,7.66,7.66,0,0,1,4.676,1.425,7.383,7.383,0,0,1,2.672,4.073l.051.2c0,.2-.132.35-.4.454l-2.349.6-.2.052c-.2,0-.339-.132-.4-.4a4.466,4.466,0,0,0-1.424-2.35,3.962,3.962,0,0,0-2.626-.85,4.121,4.121,0,0,0-2.826.948,3.07,3.07,0,0,0-1.074,2.4,3.01,3.01,0,0,0,.85,2.3,5.192,5.192,0,0,0,2.551,1.148l1.947.4a8.385,8.385,0,0,1,4.527,2.326,6.434,6.434,0,0,1,1.723,4.676,6.338,6.338,0,0,1-2.125,4.923,8.25,8.25,0,0,1-5.774,1.925A8.134,8.134,0,0,1,193.622,124.54Z"/><path class="cls-1" d="M226.342,102.291h2.8q.551,0,.4.552L222.2,125.091a.615.615,0,0,1-.649.4H217.7a.626.626,0,0,1-.655-.4L209.7,102.843l-.052-.2c0-.236.149-.351.454-.351h2.8a.578.578,0,0,1,.6.4l5.951,18.452c.035.1.092.149.178.149s.138-.052.172-.149l5.952-18.452A.576.576,0,0,1,226.342,102.291Z"/><path class="cls-1" d="M238.417,124.54a10.527,10.527,0,0,1-4.17-4.274,14.366,14.366,0,0,1-.029-12.724,10.576,10.576,0,0,1,4.05-4.251,11.771,11.771,0,0,1,11.5,0,10.64,10.64,0,0,1,4.027,4.124,12.081,12.081,0,0,1,1.448,5.928c0,.5-.018.879-.046,1.149a.48.48,0,0,1-.5.4H237.044c-.4,0-.551.212-.448.649a8.2,8.2,0,0,0,2.522,5.25,7.73,7.73,0,0,0,5.428,1.947,8.82,8.82,0,0,0,6.549-2.9c.368-.368.649-.431.85-.2l1.649,1.8c.236.2.236.414,0,.649a12.714,12.714,0,0,1-4.125,2.924,12.071,12.071,0,0,1-4.923,1.023A12.335,12.335,0,0,1,238.417,124.54Zm12.925-13.15a7.588,7.588,0,0,0-2.47-4.572,7.6,7.6,0,0,0-9.7.051,7.443,7.443,0,0,0-2.476,4.573l-.052.247c0,.2.167.305.5.305h13.752Q251.5,111.994,251.342,111.39Z"/><path class="cls-1" d="M271.793,101.843c.3,0,.453.167.453.5v2.648c0,.3-.12.448-.35.448a3.5,3.5,0,0,1-.724-.075,3.861,3.861,0,0,0-.678-.074,6.3,6.3,0,0,0-5.5,2.952,2.1,2.1,0,0,0-.351,1.247v15.5a.442.442,0,0,1-.5.5h-2.654a.442.442,0,0,1-.5-.5v-22.2a.442.442,0,0,1,.5-.5h2.4a.442.442,0,0,1,.5.5v1.8c0,.138.034.218.1.253s.149,0,.247-.1a7.811,7.811,0,0,1,6.3-2.953A4.012,4.012,0,0,1,271.793,101.843Z"/><path class="cls-1" d="M300.647,102.291h2.7a.421.421,0,0,1,.448.552l-5.6,22.2a.479.479,0,0,1-.551.454h-3.5a.639.639,0,0,1-.649-.551l-4.1-15.953c-.035-.1-.092-.149-.173-.149s-.143.052-.178.149l-4.1,15.953a.648.648,0,0,1-.654.551h-3.5a.517.517,0,0,1-.551-.454l-5.595-22.2-.052-.15c0-.27.166-.4.5-.4h2.7c.367,0,.568.149.6.448l4.153,17.555c.035.132.081.2.15.2s.114-.064.149-.2l4.5-17.555a.565.565,0,0,1,.551-.448h2.649a.556.556,0,0,1,.551.448l4.5,17.555c.028.132.08.2.149.2s.115-.064.149-.2l4.148-17.555A.547.547,0,0,1,300.647,102.291Z"/><path class="cls-1" d="M313.147,124.465a10.882,10.882,0,0,1-4.1-4.274,13.976,13.976,0,0,1,0-12.6,10.882,10.882,0,0,1,4.1-4.274,11.261,11.261,0,0,1,5.8-1.528,9.389,9.389,0,0,1,7.548,3.1.163.163,0,0,0,.2.046.194.194,0,0,0,.1-.195v-1.953a.442.442,0,0,1,.5-.5h2.453a.442.442,0,0,1,.5.5v22.2a.442.442,0,0,1-.5.5H327.3a.442.442,0,0,1-.5-.5V123.04a.211.211,0,0,0-.1-.2.175.175,0,0,0-.2.052,10.274,10.274,0,0,1-7.548,3.1A11.251,11.251,0,0,1,313.147,124.465Zm10.547-2.775a6.155,6.155,0,0,0,2.7-2.7,1.9,1.9,0,0,0,.2-.9v-8.4a1.9,1.9,0,0,0-.2-.9,6.828,6.828,0,0,0-2.775-2.7,8.447,8.447,0,0,0-4.124-1,7.8,7.8,0,0,0-5.974,2.425,10.065,10.065,0,0,0,0,12.747,7.8,7.8,0,0,0,5.974,2.424A8.667,8.667,0,0,0,323.694,121.69Z"/><path class="cls-1" d="M344.1,122.943v2.251a.446.446,0,0,1-.5.5h-.9a5.429,5.429,0,0,1-3.654-1.126,4.351,4.351,0,0,1-1.3-3.475v-31.3a.442.442,0,0,1,.5-.5h2.648a.446.446,0,0,1,.505.5v30.848q0,1.8,1.5,1.8h.7A.444.444,0,0,1,344.1,122.943Z"/><path class="cls-1" d="M351.193,93.244l2.7-1.454a.657.657,0,0,1,.253-.046c.229,0,.35.132.35.4v9.9a.216.216,0,0,0,.247.247H357.5a.442.442,0,0,1,.5.5v2.148a.442.442,0,0,1-.5.5h-2.752a.221.221,0,0,0-.247.253v19.3a.442.442,0,0,1-.5.5h-2.654a.442.442,0,0,1-.5-.5v-19.3a.221.221,0,0,0-.247-.253h-2.751a.442.442,0,0,1-.5-.5v-2.148a.442.442,0,0,1,.5-.5H350.6a.216.216,0,0,0,.247-.247v-8.2A.586.586,0,0,1,351.193,93.244Z"/><path class="cls-1" d="M377.5,102.291h2.648a.442.442,0,0,1,.5.5v22.2a.442.442,0,0,1-.5.5h-2.4a.442.442,0,0,1-.5-.5v-1.654c0-.132-.04-.213-.126-.247s-.19.017-.322.149a7.6,7.6,0,0,1-6.049,2.752,7.491,7.491,0,0,1-5.727-2.149,7.707,7.707,0,0,1-2.022-5.5v-15.55a.44.44,0,0,1,.5-.5h2.648a.442.442,0,0,1,.5.5v14.953a5.081,5.081,0,0,0,1.252,3.722,4.8,4.8,0,0,0,3.6,1.275,5.473,5.473,0,0,0,3-.85,6.684,6.684,0,0,0,2.252-2.447,2.316,2.316,0,0,0,.253-1.051v-15.6A.442.442,0,0,1,377.5,102.291Z"/><path class="cls-1" d="M391.393,125.493h-2.648a.442.442,0,0,1-.5-.5v-22.2a.442.442,0,0,1,.5-.5h2.4a.442.442,0,0,1,.5.5v1.649c0,.137.04.218.12.252s.178-.017.276-.149a8.449,8.449,0,0,1,2.654-2.051,7.742,7.742,0,0,1,3.395-.7,7.57,7.57,0,0,1,5.75,2.149,7.654,7.654,0,0,1,2.051,5.5v15.55a.442.442,0,0,1-.5.5h-2.648a.442.442,0,0,1-.5-.5V110.04a5.107,5.107,0,0,0-1.252-3.722,4.814,4.814,0,0,0-3.6-1.275,5.511,5.511,0,0,0-3,.85,6.738,6.738,0,0,0-2.246,2.447,2.331,2.331,0,0,0-.252,1.051v15.6A.442.442,0,0,1,391.393,125.493Z"/><path class="cls-1" d="M417.743,134.765a11.656,11.656,0,0,1-3.9-2.775.482.482,0,0,1,0-.7l1.7-1.849a.41.41,0,0,1,.7,0,9.5,9.5,0,0,0,12.248,1.378,6.044,6.044,0,0,0,1.953-4.929v-3.446a.239.239,0,0,0-.15-.253c-.1-.029-.218.017-.35.149a9.927,9.927,0,0,1-7.2,2.654,11.191,11.191,0,0,1-5.652-1.453,10.272,10.272,0,0,1-4-4.1,12.483,12.483,0,0,1-1.453-6.1,11.92,11.92,0,0,1,1.5-6.025,10.656,10.656,0,0,1,4.079-4.079,11.48,11.48,0,0,1,5.721-1.448,9.517,9.517,0,0,1,7.25,2.8c.138.138.241.184.327.155s.127-.138.127-.3v-1.649a.478.478,0,0,1,.149-.351.49.49,0,0,1,.351-.149h2.447a.442.442,0,0,1,.5.5v23.4a8.633,8.633,0,0,1-3.074,7.071,12.242,12.242,0,0,1-8.025,2.528A12.788,12.788,0,0,1,417.743,134.765Zm9.748-14.074a7.237,7.237,0,0,0,2.752-2.551,1.651,1.651,0,0,0,.252-.9v-7.755a1.507,1.507,0,0,0-.252-.9,7.237,7.237,0,0,0-2.752-2.551,8.367,8.367,0,0,0-4.05-.948,7.74,7.74,0,0,0-5.825,2.3,9.14,9.14,0,0,0,0,11.949,7.744,7.744,0,0,0,5.825,2.3A8.369,8.369,0,0,0,427.491,120.691Z"/><path class="cls-1" d="M72.195,189.7V170.4a.221.221,0,0,0-.247-.253h-2a.529.529,0,0,1-.351-.121.4.4,0,0,1-.149-.327v-2.2a.44.44,0,0,1,.5-.5h2a.217.217,0,0,0,.247-.247v-7.405a6.271,6.271,0,0,1,1.4-4.325,5.075,5.075,0,0,1,4-1.574,7.026,7.026,0,0,1,2.752.649c.3.172.414.368.351.6l-.7,2.35c-.1.3-.316.367-.649.2a3.265,3.265,0,0,0-1.454-.4,1.812,1.812,0,0,0-1.5.7,3.161,3.161,0,0,0-.546,2v7.2A.217.217,0,0,0,76.1,167h3.1a.442.442,0,0,1,.5.5v2.2a.421.421,0,0,1-.149.327.552.552,0,0,1-.351.121H76.1a.221.221,0,0,0-.247.253v19.3a.563.563,0,0,1-.126.351.423.423,0,0,1-.328.149h-2.7A.442.442,0,0,1,72.195,189.7Z"/><path class="cls-1" d="M98.947,167H101.6a.442.442,0,0,1,.5.5v22.2a.442.442,0,0,1-.5.5h-2.4a.442.442,0,0,1-.5-.5v-1.654c0-.132-.04-.213-.126-.247s-.19.017-.322.149A7.6,7.6,0,0,1,92.2,190.7a7.491,7.491,0,0,1-5.727-2.149,7.707,7.707,0,0,1-2.022-5.5V167.5a.44.44,0,0,1,.5-.5H87.6a.442.442,0,0,1,.5.5V182.45a5.082,5.082,0,0,0,1.253,3.722,4.8,4.8,0,0,0,3.6,1.275,5.473,5.473,0,0,0,3-.85,6.692,6.692,0,0,0,2.252-2.447,2.319,2.319,0,0,0,.253-1.051V167.5A.442.442,0,0,1,98.947,167ZM86.493,160.77a2.684,2.684,0,0,1-.8-1.924,2.7,2.7,0,0,1,5.4,0,2.662,2.662,0,0,1-.8,1.924,2.6,2.6,0,0,1-3.8,0Zm9.851,0a2.662,2.662,0,0,1-.8-1.924,2.736,2.736,0,0,1,2.7-2.7,2.737,2.737,0,0,1,2.7,2.7,2.684,2.684,0,0,1-.8,1.924,2.6,2.6,0,0,1-3.8,0Z"/><path class="cls-1" d="M120.494,166.549q.449,0,.448.5V169.7c0,.3-.115.448-.35.448a3.585,3.585,0,0,1-.724-.075A3.858,3.858,0,0,0,119.2,170a6.307,6.307,0,0,0-5.5,2.952,2.1,2.1,0,0,0-.351,1.247v15.5a.442.442,0,0,1-.5.5h-2.649a.442.442,0,0,1-.5-.5V167.5a.442.442,0,0,1,.5-.5h2.4a.442.442,0,0,1,.5.5v1.8c0,.138.029.218.1.253s.149,0,.253-.1a7.8,7.8,0,0,1,6.3-2.953A3.979,3.979,0,0,1,120.494,166.549Z"/><path class="cls-1" d="M141.444,190.2h-2.7a.442.442,0,0,1-.5-.5v-34a.441.441,0,0,1,.5-.5h2.7a.441.441,0,0,1,.5.5v16.6c0,.1.035.155.1.172s.132-.022.2-.126l12.1-16.848a.675.675,0,0,1,.6-.3h3.3a.427.427,0,0,1,.4.172c.069.121.035.259-.1.425l-10.3,14.2a.729.729,0,0,0-.052.7l10.852,18.9a.843.843,0,0,1,.1.3c0,.2-.149.3-.448.3h-3.2a.617.617,0,0,1-.551-.35l-9.2-16.154c-.034-.1-.08-.149-.149-.149a.3.3,0,0,0-.2.1l-3.246,4.55a.984.984,0,0,0-.2.649V189.7A.442.442,0,0,1,141.444,190.2Z"/><path class="cls-1" d="M177.192,167h2.649a.442.442,0,0,1,.5.5v22.2a.442.442,0,0,1-.5.5h-2.4a.442.442,0,0,1-.5-.5v-1.654c0-.132-.041-.213-.127-.247s-.189.017-.321.149a7.6,7.6,0,0,1-6.049,2.752,7.492,7.492,0,0,1-5.728-2.149,7.707,7.707,0,0,1-2.022-5.5V167.5a.44.44,0,0,1,.5-.5h2.648a.442.442,0,0,1,.5.5V182.45a5.086,5.086,0,0,0,1.252,3.722,4.8,4.8,0,0,0,3.6,1.275,5.476,5.476,0,0,0,3-.85,6.7,6.7,0,0,0,2.252-2.447,2.332,2.332,0,0,0,.253-1.051V167.5A.442.442,0,0,1,177.192,167Z"/><path class="cls-1" d="M194.139,187.648V189.9a.444.444,0,0,1-.5.5h-.9a5.423,5.423,0,0,1-3.648-1.126,4.351,4.351,0,0,1-1.3-3.475V154.5a.442.442,0,0,1,.5-.5h2.648a.442.442,0,0,1,.5.5v30.848c0,1.2.5,1.8,1.5,1.8h.7A.442.442,0,0,1,194.139,187.648Z"/><path class="cls-1" d="M201.239,157.949l2.7-1.453a.655.655,0,0,1,.252-.046c.23,0,.351.132.351.4v9.9a.216.216,0,0,0,.247.247h2.752a.442.442,0,0,1,.5.5v2.148a.442.442,0,0,1-.5.5h-2.752a.221.221,0,0,0-.247.253v19.3a.442.442,0,0,1-.5.5h-2.654a.442.442,0,0,1-.5-.5V170.4a.221.221,0,0,0-.247-.253H197.89a.442.442,0,0,1-.5-.5V167.5a.442.442,0,0,1,.5-.5h2.751a.216.216,0,0,0,.247-.247v-8.2A.589.589,0,0,1,201.239,157.949Z"/><path class="cls-1" d="M227.543,167h2.648a.442.442,0,0,1,.5.5v22.2a.442.442,0,0,1-.5.5h-2.4a.442.442,0,0,1-.5-.5v-1.654c0-.132-.04-.213-.126-.247s-.19.017-.322.149a7.6,7.6,0,0,1-6.049,2.752,7.491,7.491,0,0,1-5.727-2.149,7.707,7.707,0,0,1-2.022-5.5V167.5a.44.44,0,0,1,.5-.5h2.649a.442.442,0,0,1,.5.5V182.45a5.082,5.082,0,0,0,1.253,3.722,4.8,4.8,0,0,0,3.6,1.275,5.473,5.473,0,0,0,3-.85,6.692,6.692,0,0,0,2.252-2.447,2.319,2.319,0,0,0,.253-1.051V167.5A.442.442,0,0,1,227.543,167Z"/><path class="cls-1" d="M249.09,166.549q.448,0,.448.5V169.7c0,.3-.114.448-.35.448a3.585,3.585,0,0,1-.724-.075,3.858,3.858,0,0,0-.672-.074,6.307,6.307,0,0,0-5.5,2.952,2.1,2.1,0,0,0-.351,1.247v15.5a.442.442,0,0,1-.5.5h-2.648a.442.442,0,0,1-.5-.5V167.5a.442.442,0,0,1,.5-.5h2.4a.442.442,0,0,1,.5.5v1.8c0,.138.029.218.1.253s.149,0,.253-.1a7.8,7.8,0,0,1,6.3-2.953A3.979,3.979,0,0,1,249.09,166.549Z"/><path class="cls-1" d="M279.938,167h2.654a.444.444,0,0,1,.5.5v22.2a.444.444,0,0,1-.5.5h-2.4a.442.442,0,0,1-.5-.5v-1.654a.24.24,0,0,0-.126-.247c-.086-.035-.195.017-.328.149a7.582,7.582,0,0,1-6.049,2.752,7.486,7.486,0,0,1-5.721-2.149,7.711,7.711,0,0,1-2.028-5.5V167.5a.442.442,0,0,1,.5-.5h2.648a.442.442,0,0,1,.5.5V182.45a5.107,5.107,0,0,0,1.252,3.722,4.819,4.819,0,0,0,3.6,1.275,5.5,5.5,0,0,0,3-.85,6.741,6.741,0,0,0,2.251-2.447,2.313,2.313,0,0,0,.247-1.051V167.5A.442.442,0,0,1,279.938,167Z"/><path class="cls-1" d="M293.84,190.2h-2.654a.442.442,0,0,1-.5-.5V167.5a.442.442,0,0,1,.5-.5h2.4a.442.442,0,0,1,.5.5v1.648c0,.138.04.219.126.253s.173-.017.276-.149a8.439,8.439,0,0,1,2.648-2.051,7.77,7.77,0,0,1,3.4-.7,7.232,7.232,0,0,1,7.8,7.652V189.7a.442.442,0,0,1-.5.5h-2.654a.442.442,0,0,1-.5-.5V174.746a5.1,5.1,0,0,0-1.246-3.722,4.819,4.819,0,0,0-3.6-1.275,5.5,5.5,0,0,0-3,.85,6.735,6.735,0,0,0-2.252,2.447,2.313,2.313,0,0,0-.247,1.051v15.6A.442.442,0,0,1,293.84,190.2Z"/><path class="cls-1" d="M333.586,154h2.654a.442.442,0,0,1,.5.5v35.2a.442.442,0,0,1-.5.5h-2.453a.442.442,0,0,1-.5-.5v-1.752c0-.166-.04-.258-.126-.276s-.19.046-.322.178q-2.55,2.844-7.4,2.85a11.261,11.261,0,0,1-5.8-1.528,10.888,10.888,0,0,1-4.1-4.274,13.984,13.984,0,0,1,0-12.6,10.888,10.888,0,0,1,4.1-4.274,11.251,11.251,0,0,1,5.8-1.528,9.952,9.952,0,0,1,7.2,2.648c.132.138.241.184.322.15s.126-.132.126-.3V154.5A.442.442,0,0,1,333.586,154Zm-3.5,32.4a7.223,7.223,0,0,0,2.8-2.7,1.71,1.71,0,0,0,.2-.8v-8.6a1.71,1.71,0,0,0-.2-.8,7.223,7.223,0,0,0-2.8-2.7,8.3,8.3,0,0,0-4.1-1,7.8,7.8,0,0,0-5.974,2.424,10.065,10.065,0,0,0,0,12.747,7.8,7.8,0,0,0,5.974,2.425A8.315,8.315,0,0,0,330.088,186.4Z"/><path class="cls-1" d="M358.735,155.2h17.05a.442.442,0,0,1,.5.5v2.55a.442.442,0,0,1-.5.5h-13.6a.221.221,0,0,0-.253.247v11.351a.225.225,0,0,0,.253.253h13.6a.442.442,0,0,1,.5.5v2.55a.442.442,0,0,1-.5.5h-13.6a.221.221,0,0,0-.253.247v12a.225.225,0,0,0,.253.253h13.6a.442.442,0,0,1,.5.5v2.55a.442.442,0,0,1-.5.5h-17.05a.442.442,0,0,1-.5-.5v-34A.441.441,0,0,1,358.735,155.2Z"/><path class="cls-1" d="M397.189,167h2.648a.442.442,0,0,1,.5.5v22.2a.442.442,0,0,1-.5.5h-2.4a.442.442,0,0,1-.5-.5v-1.654c0-.132-.04-.213-.126-.247s-.19.017-.322.149a7.6,7.6,0,0,1-6.049,2.752,7.491,7.491,0,0,1-5.727-2.149,7.707,7.707,0,0,1-2.022-5.5V167.5a.44.44,0,0,1,.5-.5h2.648a.442.442,0,0,1,.5.5V182.45a5.081,5.081,0,0,0,1.252,3.722,4.8,4.8,0,0,0,3.6,1.275,5.478,5.478,0,0,0,3-.85,6.7,6.7,0,0,0,2.251-2.447,2.319,2.319,0,0,0,.253-1.051V167.5A.442.442,0,0,1,397.189,167Z"/><path class="cls-1" d="M418.737,166.549c.3,0,.448.167.448.5V169.7c0,.3-.115.448-.351.448a3.585,3.585,0,0,1-.724-.075,3.838,3.838,0,0,0-.672-.074,6.307,6.307,0,0,0-5.5,2.952,2.105,2.105,0,0,0-.35,1.247v15.5a.442.442,0,0,1-.5.5h-2.648a.442.442,0,0,1-.5-.5V167.5a.442.442,0,0,1,.5-.5h2.4a.442.442,0,0,1,.5.5v1.8c0,.138.028.218.1.253s.15,0,.253-.1a7.8,7.8,0,0,1,6.3-2.953A4,4,0,0,1,418.737,166.549Z"/><path class="cls-1" d="M427.009,189.073a11.628,11.628,0,0,1-4.2-4.4,12.885,12.885,0,0,1,0-12.15,11.62,11.62,0,0,1,4.2-4.4,11.8,11.8,0,0,1,11.954,0,11.618,11.618,0,0,1,4.2,4.4,12.885,12.885,0,0,1,0,12.15,11.625,11.625,0,0,1-4.2,4.4,11.8,11.8,0,0,1-11.954,0Zm10.1-2.9A8.063,8.063,0,0,0,439.962,183a9.974,9.974,0,0,0,0-8.8,8.087,8.087,0,0,0-2.849-3.171,7.82,7.82,0,0,0-8.255,0,8.1,8.1,0,0,0-2.849,3.171,9.983,9.983,0,0,0,0,8.8,8.071,8.071,0,0,0,2.849,3.177,7.82,7.82,0,0,0,8.255,0Z"/><path class="cls-1" d="M453.784,200.045h-2.649a.442.442,0,0,1-.5-.5V167.5a.442.442,0,0,1,.5-.5h2.4a.442.442,0,0,1,.5.5v1.752c0,.166.041.258.121.276s.195-.046.327-.179q2.5-2.852,7.4-2.849a11.365,11.365,0,0,1,5.854,1.528,10.918,10.918,0,0,1,4.1,4.274,13.984,13.984,0,0,1,0,12.6,10.918,10.918,0,0,1-4.1,4.274,11.375,11.375,0,0,1-5.854,1.528,9.668,9.668,0,0,1-7.152-2.654c-.132-.132-.241-.178-.321-.15s-.127.138-.127.3v11.345A.442.442,0,0,1,453.784,200.045Zm13.574-15.074a10.065,10.065,0,0,0,0-12.747,7.805,7.805,0,0,0-5.974-2.424,8.879,8.879,0,0,0-4.2.971,6.024,6.024,0,0,0-2.7,2.729,1.786,1.786,0,0,0-.2.8v8.6a1.786,1.786,0,0,0,.2.8,6.052,6.052,0,0,0,2.7,2.729,8.879,8.879,0,0,0,4.2.971A7.8,7.8,0,0,0,467.358,184.971Z"/><path class="cls-1" d="M483.236,189.171a10.891,10.891,0,0,1-4.1-4.274,13.984,13.984,0,0,1,0-12.6,10.891,10.891,0,0,1,4.1-4.274,11.249,11.249,0,0,1,5.8-1.528,9.392,9.392,0,0,1,7.548,3.1.164.164,0,0,0,.2.046.2.2,0,0,0,.1-.2V167.5a.442.442,0,0,1,.5-.5h2.453a.442.442,0,0,1,.5.5v22.2a.442.442,0,0,1-.5.5h-2.453a.442.442,0,0,1-.5-.5v-1.953a.21.21,0,0,0-.1-.2.175.175,0,0,0-.2.052,10.274,10.274,0,0,1-7.548,3.1A11.259,11.259,0,0,1,483.236,189.171Zm10.546-2.775a6.15,6.15,0,0,0,2.7-2.7,1.9,1.9,0,0,0,.2-.9v-8.4a1.9,1.9,0,0,0-.2-.9,6.825,6.825,0,0,0-2.774-2.7,8.44,8.44,0,0,0-4.125-1,7.805,7.805,0,0,0-5.974,2.424,10.065,10.065,0,0,0,0,12.747,7.8,7.8,0,0,0,5.974,2.425A8.678,8.678,0,0,0,493.782,186.4Z"/></svg>