<?xml version="1.0" standalone="no"?>
<!DOCTYPE svg PUBLIC "-//W3C//DTD SVG 20010904//EN"
 "http://www.w3.org/TR/2001/REC-SVG-20010904/DTD/svg10.dtd">
<svg version="1.0" xmlns="http://www.w3.org/2000/svg"
 width="1000.000000pt" height="1000.000000pt" viewBox="0 0 1000.000000 1000.000000"
 preserveAspectRatio="xMidYMid meet">
<g transform="translate(0.000000,1000.000000) scale(0.100000,-0.100000)"
fill="#000000" stroke="none">
<path d="M947 9722 c-2 -4 -3 -484 -2 -1067 l0 -1060 345 -1 c190 0 350 3 355
7 6 4 10 45 10 91 l-1 83 -93 5 c-51 3 -100 2 -110 -2 -10 -3 -24 -2 -31 2 -7
5 -24 4 -36 0 -14 -6 -26 -5 -29 1 -4 5 -11 6 -17 3 -9 -6 -70 -6 -157 -1
l-24 2 0 481 c0 265 3 486 7 492 3 6 3 13 -1 15 -10 6 -9 130 1 145 3 6 3 13
-1 15 -10 6 -9 130 1 145 3 6 3 13 -1 15 -10 6 -9 130 1 145 3 6 3 13 -1 15
-10 6 -9 130 1 145 3 6 3 13 -2 15 -11 8 -6 107 7 120 6 6 94 10 249 10 l238
0 0 93 -1 93 -352 0 c-194 0 -354 -4 -356 -7z"/>
<path d="M5577 9722 c-2 -4 -3 -45 -3 -92 l1 -85 235 -2 c129 -1 241 -2 248
-2 9 -1 12 -184 12 -881 l0 -879 -32 -1 c-18 0 -42 0 -53 -1 -11 0 -105 0
-208 1 -104 0 -192 -2 -196 -4 -4 -3 -7 -45 -7 -93 l1 -88 355 0 355 0 0 1065
0 1065 -352 2 c-194 1 -354 -2 -356 -5z"/>
<path d="M1834 9558 c7 -13 36 -66 63 -118 28 -52 67 -126 88 -165 20 -38 55
-104 77 -145 22 -41 57 -106 78 -145 21 -38 57 -106 80 -150 23 -44 62 -117
86 -161 24 -45 50 -92 56 -106 10 -18 13 -103 12 -331 0 -169 2 -308 5 -308 3
-1 63 -2 134 -3 l127 -2 0 121 c1 66 1 207 1 312 -1 183 1 195 23 235 12 24
47 88 76 143 29 55 65 123 80 150 15 28 50 93 77 145 47 88 120 225 184 345
15 28 46 85 68 128 l41 77 -145 0 -145 0 -13 -27 c-6 -16 -14 -30 -17 -33 -3
-3 -84 -161 -179 -352 -95 -191 -175 -350 -179 -352 -4 -2 -79 140 -167 317
-88 177 -162 324 -165 327 -3 3 -17 31 -32 63 l-28 57 -150 0 -150 0 14 -22z"/>
<path d="M3565 9167 c-22 -4 -47 -11 -55 -14 -8 -3 -22 -7 -30 -9 -18 -3 -96
-43 -124 -64 -62 -45 -137 -134 -169 -202 -56 -117 -71 -190 -71 -343 0 -112
7 -174 29 -234 8 -23 14 -45 14 -49 0 -4 15 -36 33 -72 57 -113 190 -221 318
-259 93 -27 256 -32 345 -10 22 5 51 12 64 15 93 20 241 126 283 203 11 21 10
25 -17 48 -17 14 -51 45 -77 70 l-48 44 -54 -58 c-120 -130 -308 -165 -467
-89 -97 46 -167 169 -165 286 l1 35 438 3 437 2 1 33 c4 86 -10 252 -21 252
-2 0 -11 35 -14 55 -5 34 -79 159 -119 201 -45 48 -147 119 -169 119 -8 0 -18
4 -23 8 -36 31 -251 50 -340 29z m255 -214 c25 -12 59 -34 77 -50 43 -38 83
-129 90 -203 l5 -60 -33 0 c-221 -4 -570 -1 -578 5 -10 6 -9 28 5 100 19 94
101 184 197 216 69 23 176 20 237 -8z"/>
<path d="M4928 9175 c-2 -2 -24 -6 -49 -9 -73 -10 -209 -60 -209 -78 0 -4 -5
-8 -11 -8 -21 0 -88 -76 -115 -130 -23 -45 -28 -70 -30 -140 -3 -106 18 -168
78 -228 39 -40 138 -97 183 -106 11 -3 40 -9 65 -15 50 -11 84 -17 150 -26
187 -25 261 -50 291 -99 24 -39 20 -117 -9 -155 -54 -73 -195 -103 -372 -78
-84 12 -187 65 -265 136 l-37 33 -31 -28 c-18 -16 -34 -32 -37 -35 -3 -4 -25
-23 -49 -43 l-44 -37 57 -54 c146 -137 384 -200 641 -170 224 27 382 145 413
308 12 64 4 161 -17 211 -50 115 -199 195 -411 221 -22 3 -125 18 -185 28
-120 20 -170 67 -167 155 3 78 65 132 167 146 42 5 117 9 125 6 3 -1 21 -3 40
-4 88 -6 185 -45 245 -99 22 -20 43 -37 46 -37 9 0 139 138 139 148 0 5 -14
20 -31 33 -18 13 -41 32 -53 42 -33 30 -158 84 -201 88 -2 0 -19 5 -37 10 -29
9 -272 21 -280 14z"/>
<path d="M949 7338 c-3 -7 -5 -2114 -2 -2123 2 -7 124 -10 346 -9 188 1 347 2
352 3 7 1 11 35 10 89 l-1 87 -247 3 -247 2 -1 23 c-4 83 -3 124 3 139 5 9 5
19 1 21 -10 6 -9 130 1 145 3 6 3 13 -1 15 -10 6 -9 130 1 145 3 6 3 13 -1 15
-7 5 -9 116 -3 142 1 6 2 12 0 15 -4 12 -2 1091 2 1096 3 3 115 6 249 7 l244
2 0 90 0 90 -352 3 c-194 1 -354 1 -354 0z"/>
<path d="M4369 7323 c-1 -10 -2 -52 -2 -93 l-2 -75 243 -2 c134 -1 246 -4 249
-7 3 -3 6 -398 6 -878 l0 -873 -244 -3 c-141 -1 -246 -6 -249 -12 -5 -7 -5
-139 -1 -170 1 -3 160 -5 354 -5 l352 0 0 1067 1 1067 -353 1 c-329 0 -353 -1
-354 -17z"/>
<path d="M1890 6360 l0 -830 115 0 c112 0 115 1 116 23 0 12 1 300 1 640 1
440 4 617 12 614 9 -3 60 -119 86 -197 5 -14 43 -115 85 -225 94 -245 165
-430 245 -640 33 -88 65 -172 71 -187 l11 -27 169 0 c121 1 169 4 170 12 1 16
1 1596 0 1625 -1 21 -4 22 -116 22 l-115 0 -2 -637 c-2 -419 -6 -637 -13 -636
-5 1 -17 21 -26 45 -21 57 -29 79 -39 103 -4 11 -22 58 -40 105 -33 89 -50
133 -150 395 -34 88 -63 165 -64 170 -3 10 -8 22 -39 98 -9 20 -16 40 -17 42
0 3 0 6 0 8 -1 1 -27 70 -58 152 l-58 150 -172 3 -172 2 0 -830z"/>
<path d="M3600 6773 c-119 -24 -232 -93 -316 -194 -27 -33 -84 -147 -84 -169
0 -9 -3 -20 -7 -24 -4 -3 -8 -12 -9 -19 -2 -7 -5 -23 -8 -36 -25 -111 -23
-263 5 -391 11 -52 51 -153 62 -158 4 -2 7 -8 7 -14 0 -18 87 -118 135 -154
98 -75 211 -109 365 -107 70 0 94 3 160 17 41 9 150 58 150 67 0 5 6 9 14 9
23 0 125 111 161 175 85 153 110 385 63 585 -31 133 -137 283 -244 346 -127
75 -293 99 -454 67z m284 -223 c62 -30 99 -68 133 -139 26 -54 27 -64 30 -241
4 -239 -11 -299 -92 -382 -53 -54 -121 -77 -220 -74 -44 1 -93 6 -109 10 -74
18 -159 108 -182 191 -19 69 -25 295 -11 406 16 121 91 212 207 250 14 5 63 7
110 6 65 -2 97 -8 134 -27z"/>
<path d="M947 4942 c-3 -6 -1 -2109 2 -2123 1 -7 701 -7 702 1 5 19 3 164 -2
171 -3 6 -88 10 -205 9 -109 -1 -206 -1 -214 -1 -8 1 -24 1 -35 2 -29 0 -43
16 -39 47 5 38 5 -6 3 890 -1 447 1 815 4 819 4 3 116 6 249 7 l243 1 0 90 0
90 -352 2 c-194 1 -354 -2 -356 -5z"/>
<path d="M8374 4942 c-8 -6 -10 -89 -5 -164 1 -15 23 -16 241 -16 132 1 243
-1 246 -5 3 -3 7 -400 8 -881 l1 -875 -244 0 c-150 0 -246 -3 -250 -9 -5 -8
-6 -125 -2 -168 1 -7 112 -10 354 -10 l352 1 0 1067 0 1066 -346 0 c-190 0
-350 -3 -355 -6z"/>
<path d="M5910 4895 c-4 -5 -8 -402 -8 -882 l1 -871 129 -1 129 0 -1 47 c-3
91 0 162 8 162 4 0 19 -22 34 -49 70 -124 204 -191 367 -185 161 7 295 95 367
242 16 31 29 62 31 67 1 6 9 35 17 65 29 102 38 281 22 420 -25 223 -133 394
-286 455 -56 22 -76 26 -170 29 -142 6 -260 -53 -337 -170 -20 -30 -39 -54
-44 -54 -4 0 -8 162 -8 361 0 199 -2 363 -5 366 -10 10 -238 8 -246 -2z m615
-719 c102 -22 192 -121 212 -234 3 -20 6 -109 6 -198 0 -143 -2 -168 -23 -227
-13 -37 -27 -67 -32 -67 -4 0 -8 -5 -8 -10 0 -15 -48 -57 -90 -79 -107 -56
-274 -40 -360 35 -64 56 -68 78 -68 357 -1 273 4 304 59 356 66 62 195 91 304
67z"/>
<path d="M1944 4801 c-3 -3 -20 -4 -39 -3 l-33 3 1 -828 2 -828 115 0 115 0
-1 643 c0 353 3 642 8 642 5 0 12 -10 17 -22 11 -26 24 -61 26 -68 1 -3 9 -22
18 -44 9 -21 17 -43 17 -48 0 -5 7 -23 16 -40 9 -17 26 -59 39 -92 12 -34 61
-161 109 -283 47 -122 86 -228 86 -235 0 -35 33 34 99 207 40 105 78 204 85
220 20 47 41 100 41 105 1 3 9 22 18 44 9 21 17 45 17 52 0 8 4 14 8 14 5 0 9
6 9 13 0 25 67 177 77 174 10 -3 16 -137 6 -137 -3 0 -5 -258 -5 -573 l0 -572
118 -2 117 -3 0 825 c0 597 -3 826 -11 831 -10 6 -41 6 -121 3 -7 0 -47 1 -89
2 -75 2 -104 -4 -94 -21 3 -5 1 -11 -5 -15 -5 -3 -10 -12 -10 -19 0 -8 -8 -31
-17 -52 -9 -22 -18 -43 -19 -49 -4 -15 -153 -395 -168 -430 -8 -16 -17 -41
-21 -54 l-7 -24 -19 24 c-10 13 -19 31 -19 40 0 8 -4 19 -10 25 -5 5 -11 18
-13 29 -4 20 -9 33 -42 110 -9 22 -18 47 -20 55 -2 8 -11 33 -21 55 -10 22
-18 45 -20 50 -1 6 -22 62 -47 125 -25 63 -48 123 -51 133 -4 13 -16 17 -48
17 -24 -1 -55 1 -70 3 -16 2 -28 1 -28 -4 0 -5 -6 -6 -13 -3 -19 7 -97 11
-103 5z"/>
<path d="M3678 4394 c-2 -1 -23 -5 -48 -9 -24 -4 -48 -9 -52 -11 -4 -3 -17 -7
-29 -9 -81 -16 -213 -113 -254 -186 -13 -25 -12 -27 33 -65 88 -75 104 -85
119 -73 7 6 13 16 13 22 0 19 120 107 155 113 5 1 28 6 50 11 62 14 169 7 217
-15 91 -41 127 -105 131 -232 2 -51 -1 -83 -8 -86 -5 -1 -98 -5 -205 -7 -207
-5 -220 -7 -314 -38 -158 -52 -239 -157 -240 -309 -1 -123 23 -196 88 -267 39
-44 138 -97 201 -108 51 -10 180 -10 225 -1 103 20 203 97 243 185 13 31 22
40 27 30 5 -7 7 -16 4 -20 -2 -4 0 -10 6 -14 5 -3 10 -13 10 -21 0 -30 55 -94
100 -115 34 -16 68 -22 145 -24 55 -2 107 -1 116 1 13 4 16 21 15 105 0 95 -1
100 -20 98 -12 -1 -46 -1 -77 0 l-56 1 -1 348 c0 329 -2 351 -22 412 -45 134
-146 229 -280 262 -19 5 -44 11 -55 14 -21 6 -233 13 -237 8z m337 -799 c0
-112 -9 -153 -46 -198 -82 -100 -319 -123 -415 -39 -32 27 -45 57 -49 115 -12
165 71 215 359 213 l151 -1 0 -90z"/>
<path d="M7662 4384 c-213 -44 -381 -223 -427 -455 -18 -91 -14 -285 9 -384
22 -101 98 -230 172 -293 53 -45 155 -102 183 -102 10 0 21 -3 25 -7 20 -21
202 -32 301 -19 80 10 130 26 214 69 49 24 152 118 171 155 11 22 8 28 -41 70
-29 26 -64 57 -78 70 l-25 23 -44 -51 c-170 -194 -499 -175 -604 35 -19 38
-26 68 -33 139 l-6 56 53 1 c29 0 226 1 438 2 l385 2 -1 105 c-2 227 -54 346
-214 493 -8 7 -30 20 -47 28 -18 7 -33 17 -33 21 0 5 -9 8 -19 8 -11 0 -22 4
-25 8 -19 31 -249 48 -354 26z m274 -212 c49 -25 98 -71 120 -114 21 -39 41
-121 40 -163 l-1 -30 -305 0 -305 0 2 54 c2 30 8 60 14 67 6 8 9 14 5 14 -12
0 35 76 69 112 36 37 86 65 140 79 53 14 177 3 221 -19z"/>
<path d="M4460 4366 c0 -4 26 -70 45 -111 7 -16 47 -115 89 -220 43 -104 86
-209 96 -232 11 -24 20 -45 20 -47 0 -6 154 -385 175 -431 7 -16 25 -61 40
-99 l26 -70 -52 -130 c-29 -72 -56 -135 -60 -140 -4 -5 -63 -8 -131 -8 -68 1
-130 -1 -139 -4 -14 -4 -17 -21 -17 -107 l0 -102 132 2 c287 5 345 47 456 328
18 44 36 89 41 100 20 44 261 641 262 650 1 6 4 12 7 15 3 3 13 25 22 50 26
72 198 492 213 522 7 15 10 29 7 32 -11 12 -262 6 -262 -5 0 -6 -7 -25 -15
-42 -8 -18 -20 -50 -28 -72 -23 -64 -126 -338 -136 -360 -10 -22 -52 -134 -56
-150 -1 -5 -5 -17 -8 -25 -3 -8 -20 -55 -38 -105 -43 -122 -61 -165 -70 -165
-4 0 -13 17 -19 38 -6 20 -15 46 -20 57 -5 11 -25 65 -45 120 -20 55 -44 120
-53 145 -9 25 -17 47 -18 50 0 3 -4 12 -7 20 -5 13 -87 231 -169 448 l-19 52
-135 0 c-74 0 -134 -2 -134 -4z"/>
<path d="M2260 1994 c-36 -7 -75 -15 -86 -18 -79 -17 -227 -124 -260 -187 -14
-27 -13 -28 62 -89 l76 -61 51 54 c58 61 96 83 177 100 125 28 237 2 298 -67
38 -43 52 -93 56 -191 2 -63 0 -75 -13 -75 -165 -2 -392 -10 -411 -15 -14 -3
-38 -9 -55 -11 -43 -8 -165 -68 -196 -98 -99 -93 -126 -285 -59 -417 62 -120
178 -186 340 -194 187 -8 323 60 383 193 l21 47 12 -41 c16 -55 32 -84 61
-112 52 -48 81 -56 208 -56 l120 -1 0 100 0 100 -75 0 -75 1 -2 319 c-2 354
-4 388 -28 460 -26 74 -102 175 -132 175 -7 0 -13 4 -13 9 0 10 -82 51 -113
57 -10 2 -26 5 -35 8 -75 23 -222 27 -312 10z m371 -719 c3 -57 -2 -192 -8
-210 -27 -88 -157 -156 -288 -150 -157 8 -225 77 -211 215 2 19 4 40 5 47 2
21 50 70 84 86 19 9 53 19 77 22 24 3 45 6 46 8 1 1 68 2 148 2 139 0 146 -1
147 -20z"/>
<path d="M3815 1999 c-28 -5 -73 -18 -100 -30 -56 -25 -145 -111 -170 -164
-10 -19 -21 -35 -26 -35 -5 0 -9 47 -9 104 l0 104 -130 0 -130 -1 3 -851 2
-850 125 0 125 -1 3 343 c2 317 8 383 28 320 8 -25 10 -29 64 -90 79 -90 183
-130 318 -123 126 7 217 48 293 133 24 27 53 66 64 88 11 21 25 42 30 46 6 4
7 8 3 8 -4 0 0 16 8 35 7 19 17 51 20 72 3 21 9 45 13 53 4 8 6 25 5 38 0 12
1 22 5 22 8 0 6 243 -3 305 -49 341 -253 519 -541 474z m61 -213 c82 -18 162
-90 195 -174 19 -50 22 -77 22 -227 1 -93 -2 -187 -5 -207 -13 -84 -75 -170
-150 -209 -35 -18 -151 -40 -173 -33 -5 2 -26 5 -45 8 -86 12 -156 61 -188
128 -18 39 -19 65 -19 289 0 175 3 257 13 284 14 42 56 90 96 111 66 35 176
48 254 30z"/>
<path d="M5207 2004 c-1 -2 -17 -5 -35 -9 -94 -16 -195 -90 -249 -182 -14 -24
-28 -43 -32 -43 -4 0 -7 46 -7 103 l1 102 -128 2 c-70 1 -128 -2 -128 -5 -1
-4 -2 -384 -3 -845 -1 -542 2 -841 9 -845 5 -3 62 -6 127 -7 97 0 117 2 120
15 2 8 3 162 3 343 0 180 2 327 5 327 3 0 18 -21 34 -46 36 -58 111 -134 131
-134 8 0 15 -4 15 -9 0 -17 106 -44 185 -46 256 -7 425 159 473 465 9 57 9
277 0 353 -4 31 -20 96 -37 143 -71 206 -210 314 -413 319 -37 1 -69 1 -71 -1z
m100 -241 c75 -37 113 -83 146 -181 18 -51 17 -376 -1 -438 -36 -124 -148
-205 -282 -206 -129 -1 -220 44 -266 132 -17 31 -18 62 -18 300 l0 265 26 40
c14 22 35 47 46 57 83 68 243 82 349 31z"/>
<path d="M1288 1125 c-2 -3 -21 -7 -42 -10 -103 -13 -149 -68 -153 -183 -5
-147 73 -214 232 -199 136 13 186 73 180 214 -5 98 -57 155 -152 166 -23 3
-46 8 -51 11 -5 3 -11 3 -14 1z"/>
</g>
</svg>
