<svg id="Ebene_1" data-name="Ebene 1" xmlns="http://www.w3.org/2000/svg" viewBox="0 0 1700.787 472.6"><defs><style>.cls-1{fill:#1d1d1b;}.cls-2{font-size:28px;font-family:IBMPlexSans, IBM Plex Sans;}.cls-3{letter-spacing:-0.004em;}.cls-4{letter-spacing:0em;}.cls-5{letter-spacing:-0.006em;}.cls-6{letter-spacing:0.004em;}.cls-7{letter-spacing:-0.008em;}</style></defs><path class="cls-1" d="M1409.739,391.7v58.21h291.048V391.7Zm116.42,57.046H1410.9V392.867h115.256Zm116.419,0H1527.323V392.867h115.255Zm57.045,0h-55.881V392.867h55.881Z"/><path class="cls-1" d="M1625.866,411.419V424.24c0,.166-.111.222-.194.055l-7.316-12.987a.491.491,0,0,0-.416-.221h-3.132a.32.32,0,0,0-.333.332v18.719a.321.321,0,0,0,.333.333h2.716a.32.32,0,0,0,.332-.333V417.345c0-.166.112-.221.195-.055l7.316,12.959a.489.489,0,0,0,.416.222h3.132a.321.321,0,0,0,.333-.333V411.419a.32.32,0,0,0-.333-.332H1626.2a.32.32,0,0,0-.333.332m-19.582,19.052h2.745a.321.321,0,0,0,.332-.333V411.419a.32.32,0,0,0-.332-.332h-2.745a.32.32,0,0,0-.332.332v18.719a.321.321,0,0,0,.332.333m-10.941-3.379V411.419a.32.32,0,0,0-.333-.332h-2.744a.319.319,0,0,0-.332.332v18.719a.32.32,0,0,0,.332.333h9.451a.321.321,0,0,0,.333-.333v-2.547a.321.321,0,0,0-.333-.333h-6.208a.159.159,0,0,1-.166-.166M1577.417,414.3h2.522c2.245,0,4.047,1.191,4.047,3.655s-1.8,3.655-4.075,3.655h-2.494a.159.159,0,0,1-.166-.166v-6.978a.147.147,0,0,1,.166-.166m6.43,16.172h3.492c.277,0,.36-.194.194-.416l-4.157-5.621a.16.16,0,0,1,.055-.249,6.412,6.412,0,0,0,4.1-6.231c0-4.319-3.271-6.867-7.428-6.867h-5.931a.319.319,0,0,0-.332.332v18.719a.32.32,0,0,0,.332.333h2.744a.321.321,0,0,0,.333-.333v-5.15a.159.159,0,0,1,.166-.166h2.106a.337.337,0,0,1,.222.111l3.714,5.316a.442.442,0,0,0,.388.222m-15.044-16.5v-2.548a.32.32,0,0,0-.333-.332h-10.088a.319.319,0,0,0-.332.332v18.719a.32.32,0,0,0,.332.333h10.088a.32.32,0,0,0,.333-.333v-2.547a.32.32,0,0,0-.333-.333H1561.6a.159.159,0,0,1-.166-.166V422.44a.16.16,0,0,1,.166-.166h6.873a.32.32,0,0,0,.333-.332v-2.52a.32.32,0,0,0-.333-.332H1561.6a.147.147,0,0,1-.166-.167v-4.458a.16.16,0,0,1,.166-.166h6.873a.32.32,0,0,0,.333-.332M1547.2,427.258h-2.938a.159.159,0,0,1-.166-.166V422.44a.147.147,0,0,1,.166-.166h2.938c1.8,0,2.8,1.025,2.8,2.492,0,1.5-1,2.492-2.8,2.492m-.277-12.959c1.746,0,2.716.942,2.716,2.381s-.97,2.41-2.716,2.41h-2.661a.147.147,0,0,1-.166-.167v-4.458a.147.147,0,0,1,.166-.166Zm4.046,6.092a4.636,4.636,0,0,0,2.217-4.07c0-2.963-2.05-5.234-5.82-5.234h-6.319a.319.319,0,0,0-.332.332v18.719a.32.32,0,0,0,.332.333h6.569c3.88,0,5.931-2.354,5.931-5.455a4.759,4.759,0,0,0-2.578-4.4c-.111-.084-.111-.167,0-.222"/><path class="cls-1" d="M1680.235,437.323s-1.017-6.749-1.5-9.594c.136-.028.21-.045.21-.045a.626.626,0,0,0,.415-.93,13.848,13.848,0,0,1-1.564-6.909,13.241,13.241,0,0,1,.72-4.323c.027-.078.055-.155.083-.232.017-.047.05-.151.057-.167a12.7,12.7,0,0,0,1.035-3.784,10.788,10.788,0,0,0-.842-5.191c-.03-.056-.062-.11-.093-.164a1.353,1.353,0,0,0,.176-1.638,1.291,1.291,0,0,0-1.725-.573c-.061.034-.2.134-.267.181-.105-.077-.167-.116-.167-.116s-.162-.107-.3-.18l-.053-.028a4.716,4.716,0,0,0-1.925-.4,4.781,4.781,0,0,0-2.853.939,2.876,2.876,0,0,1-.592.112l-.781.038c-.367.015-.786,0-.786,0a.333.333,0,0,0-.332.333c0,.016.12,1.089.121,1.093a.883.883,0,0,0,.367.668l.026.018a.291.291,0,0,1,.124.128,1.21,1.21,0,0,0,.378.538.1.1,0,0,0,.152-.044c.149-.585.5.046,1.162-.314.171-.093.261.321.19.5l-.062.157a1.048,1.048,0,0,1-.825.652c-.294.043-.463.073-.459.114.035.331,0,.615.332.814a.81.81,0,0,0,.147.066c.516.135,2.02.712.107,2.968a4.938,4.938,0,0,0-.321.405,1.438,1.438,0,0,0-.106.182l-.04.082-5.749-2.152a1.3,1.3,0,0,1-.5-.409l-.566-.973a1.5,1.5,0,0,0-1.27-.721,5.162,5.162,0,0,0-.8,0c-.171.009-.27.049-.306.149a1.034,1.034,0,0,0,.125.72l.493.906c.044.065.666,1.456.666,1.456a1.025,1.025,0,0,0,.308.439c.013.011,5.9,4.461,5.9,4.461l-6.22,3.1a.76.76,0,0,1-.585.06l-.558-.169a2.022,2.022,0,0,0-2.232.239l-.176.166a.3.3,0,0,0,.085.493s.982.577,1.2.725l1.529.905a1.117,1.117,0,0,0,.786.128l6.039-1.218a20.87,20.87,0,0,0,.728,4.234,10.7,10.7,0,0,0-2.835,10.634,4.391,4.391,0,0,0-2.333.641,2.052,2.052,0,0,0-.779,1.641l4.716.011.4,0a.68.68,0,0,0,.625-.5,3.3,3.3,0,0,0,.086-.489,10.6,10.6,0,0,1,1.109-3.615,11.925,11.925,0,0,1,1.878-2.6,18.722,18.722,0,0,0,5.334,4.95,5.278,5.278,0,0,0-1.965.527,2.021,2.021,0,0,0-.977,1.738h4.885a.756.756,0,0,0,.717-.513.723.723,0,0,0,.026-.094c0-.023.008-.046.01-.07A.722.722,0,0,0,1680.235,437.323Z"/><path class="cls-1" d="M1424.95,417.216a2.3,2.3,0,0,1-.879-1.191l-.009-.04a.1.1,0,0,1,.072-.094l.523-.214a.11.11,0,0,1,.051-.011.075.075,0,0,1,.052.02.141.141,0,0,1,.031.052,1.568,1.568,0,0,0,.59.862,1.676,1.676,0,0,0,1.012.308,1.59,1.59,0,0,0,1.124-.369,1.379,1.379,0,0,0,.04-1.89,1.867,1.867,0,0,0-.97-.472l-.523-.1a2.306,2.306,0,0,1-1.3-.663,1.831,1.831,0,0,1-.478-1.308,1.9,1.9,0,0,1,.277-1,2,2,0,0,1,.766-.724,2.281,2.281,0,0,1,3.27,1.211.06.06,0,0,1,.01.041.1.1,0,0,1-.072.094l-.534.225a.113.113,0,0,1-.051.011.069.069,0,0,1-.052-.022.12.12,0,0,1-.03-.05,1.631,1.631,0,0,0-.57-.76,1.434,1.434,0,0,0-.858-.277,1.369,1.369,0,0,0-.991.349,1.18,1.18,0,0,0-.364.893,1.148,1.148,0,0,0,.288.8,1.454,1.454,0,0,0,.852.421l.523.1a2.819,2.819,0,0,1,1.408.7,1.856,1.856,0,0,1,.554,1.417,2.091,2.091,0,0,1-.283,1.078,1.994,1.994,0,0,1-.811.76,2.636,2.636,0,0,1-1.237.277A2.445,2.445,0,0,1,1424.95,417.216Z"/><path class="cls-1" d="M1430.843,417.277a2.155,2.155,0,0,1-.857-.877,2.946,2.946,0,0,1-.005-2.613,2.175,2.175,0,0,1,.832-.873,2.416,2.416,0,0,1,2.361,0,2.176,2.176,0,0,1,.826.847,2.471,2.471,0,0,1,.3,1.217,1.972,1.972,0,0,1-.011.236.1.1,0,0,1-.1.083h-3.624c-.082,0-.113.043-.093.133a1.689,1.689,0,0,0,.519,1.078,1.583,1.583,0,0,0,1.114.4,1.811,1.811,0,0,0,1.345-.6c.075-.075.134-.088.174-.041l.34.371c.047.041.047.085,0,.133a2.636,2.636,0,0,1-.847.6,2.47,2.47,0,0,1-1.012.21A2.522,2.522,0,0,1,1430.843,417.277Zm2.655-2.7a1.566,1.566,0,0,0-.509-.939,1.452,1.452,0,0,0-.991-.354,1.467,1.467,0,0,0-1,.365,1.525,1.525,0,0,0-.507.939l-.011.051c0,.041.034.062.1.062h2.824C1433.487,414.7,1433.518,414.66,1433.5,414.577Z"/><path class="cls-1" d="M1436.126,417.473h-.544a.091.091,0,0,1-.1-.1v-4.56a.091.091,0,0,1,.1-.1h.493a.09.09,0,0,1,.1.1v.339c0,.028.008.045.025.052s.036,0,.056-.031a1.749,1.749,0,0,1,.545-.421,1.583,1.583,0,0,1,.7-.144,1.554,1.554,0,0,1,1.181.441,1.57,1.57,0,0,1,.421,1.13v3.194a.09.09,0,0,1-.1.1h-.544a.09.09,0,0,1-.1-.1V414.3a1.047,1.047,0,0,0-.257-.764.987.987,0,0,0-.738-.262,1.136,1.136,0,0,0-.617.174,1.392,1.392,0,0,0-.462.5.478.478,0,0,0-.052.216v3.2A.09.09,0,0,1,1436.126,417.473Z"/><path class="cls-1" d="M1441.424,417.262a2.239,2.239,0,0,1-.842-.878,2.878,2.878,0,0,1,0-2.587,2.243,2.243,0,0,1,.842-.877,2.309,2.309,0,0,1,1.191-.314,1.924,1.924,0,0,1,1.55.637c.014.013.027.017.041.009a.039.039,0,0,0,.022-.04v-.4a.09.09,0,0,1,.1-.1h.5a.09.09,0,0,1,.1.1v4.56a.09.09,0,0,1-.1.1h-.5a.09.09,0,0,1-.1-.1v-.4a.043.043,0,0,0-.022-.042.036.036,0,0,0-.041.011,2.108,2.108,0,0,1-1.55.637A2.309,2.309,0,0,1,1441.424,417.262Zm2.167-.57a1.277,1.277,0,0,0,.554-.554.408.408,0,0,0,.041-.184v-1.726a.408.408,0,0,0-.041-.184,1.4,1.4,0,0,0-.57-.554,1.733,1.733,0,0,0-.847-.206,1.6,1.6,0,0,0-1.227.5,2.068,2.068,0,0,0,0,2.618,1.6,1.6,0,0,0,1.227.5A1.79,1.79,0,0,0,1443.591,416.692Z"/><path class="cls-1" d="M1446.814,410.851l.555-.3a.126.126,0,0,1,.051-.009q.072,0,.072.081v2.034a.045.045,0,0,0,.052.051h.565a.09.09,0,0,1,.1.1v.441a.09.09,0,0,1-.1.1h-.565a.046.046,0,0,0-.052.052v3.964a.091.091,0,0,1-.1.1h-.544a.09.09,0,0,1-.1-.1v-3.964a.047.047,0,0,0-.052-.052h-.564a.091.091,0,0,1-.1-.1v-.441a.09.09,0,0,1,.1-.1h.564a.046.046,0,0,0,.052-.051v-1.685A.118.118,0,0,1,1446.814,410.851Z"/><path class="cls-1" d="M1449.5,417.277a1.6,1.6,0,0,1-.58-.821l-.009-.041a.081.081,0,0,1,.07-.081l.493-.175.042-.011c.041,0,.072.028.092.083a.913.913,0,0,0,.355.513.951.951,0,0,0,.559.184.926.926,0,0,0,.657-.21.7.7,0,0,0,.226-.539.633.633,0,0,0-.221-.513,1.3,1.3,0,0,0-.61-.257l-.412-.082a1.4,1.4,0,0,1-.832-.467,1.316,1.316,0,0,1-.307-.879,1.3,1.3,0,0,1,.2-.7,1.349,1.349,0,0,1,.549-.5,1.742,1.742,0,0,1,.8-.179,1.571,1.571,0,0,1,.96.293,1.516,1.516,0,0,1,.549.836l.011.041c0,.042-.028.072-.083.093l-.482.123-.041.011c-.041,0-.069-.027-.082-.083a.913.913,0,0,0-.293-.482.811.811,0,0,0-.539-.175.844.844,0,0,0-.58.2.629.629,0,0,0-.221.493.618.618,0,0,0,.175.473,1.07,1.07,0,0,0,.524.236l.4.081a1.724,1.724,0,0,1,.93.478,1.321,1.321,0,0,1,.354.96,1.3,1.3,0,0,1-.437,1.011,1.693,1.693,0,0,1-1.185.395A1.667,1.667,0,0,1,1449.5,417.277Z"/><path class="cls-1" d="M1456.219,412.709h.575c.076,0,.1.037.082.113l-1.509,4.569a.126.126,0,0,1-.133.082h-.791a.128.128,0,0,1-.134-.082l-1.509-4.569-.011-.041c0-.049.031-.072.094-.072h.574a.119.119,0,0,1,.123.082l1.222,3.789c.007.02.019.031.036.031s.029-.011.036-.031l1.222-3.789A.118.118,0,0,1,1456.219,412.709Z"/><path class="cls-1" d="M1458.7,417.277a2.153,2.153,0,0,1-.856-.877,2.951,2.951,0,0,1-.006-2.613,2.18,2.18,0,0,1,.831-.873,2.418,2.418,0,0,1,2.362,0,2.179,2.179,0,0,1,.827.847,2.481,2.481,0,0,1,.3,1.217,2.323,2.323,0,0,1-.009.236.1.1,0,0,1-.1.083h-3.625c-.082,0-.113.043-.092.133a1.683,1.683,0,0,0,.518,1.078,1.585,1.585,0,0,0,1.115.4,1.811,1.811,0,0,0,1.345-.6c.075-.075.133-.088.174-.041l.339.371c.048.041.048.085,0,.133a2.625,2.625,0,0,1-.847.6,2.472,2.472,0,0,1-1.011.21A2.526,2.526,0,0,1,1458.7,417.277Zm2.654-2.7a1.559,1.559,0,0,0-.507-.939,1.56,1.56,0,0,0-1.992.011,1.527,1.527,0,0,0-.509.939l-.01.051c0,.041.034.062.1.062h2.824C1461.343,414.7,1461.374,414.66,1461.352,414.577Z"/><path class="cls-1" d="M1465.552,412.617q.093,0,.093.1v.544c0,.061-.025.092-.072.092a.776.776,0,0,1-.149-.015.732.732,0,0,0-.139-.016,1.294,1.294,0,0,0-1.129.607.432.432,0,0,0-.072.256v3.184a.09.09,0,0,1-.1.1h-.545a.09.09,0,0,1-.1-.1v-4.56a.09.09,0,0,1,.1-.1h.493a.09.09,0,0,1,.1.1v.37c0,.028.008.044.022.051s.03,0,.05-.02a1.605,1.605,0,0,1,1.294-.606A.817.817,0,0,1,1465.552,412.617Z"/><path class="cls-1" d="M1471.477,412.709h.555a.094.094,0,0,1,.076.03.1.1,0,0,1,.016.083l-1.151,4.558c-.007.063-.044.093-.113.093h-.718a.132.132,0,0,1-.134-.113l-.842-3.276c-.007-.02-.019-.031-.035-.031a.039.039,0,0,0-.037.031l-.841,3.276a.133.133,0,0,1-.134.113h-.719a.106.106,0,0,1-.113-.093l-1.149-4.558-.011-.031c0-.055.035-.082.1-.082h.555c.075,0,.116.03.122.092l.853,3.605c.007.027.017.04.031.04s.023-.013.03-.04l.924-3.605a.115.115,0,0,1,.113-.092h.544a.113.113,0,0,1,.113.092l.925,3.605c.006.027.017.04.031.04s.023-.013.031-.04l.851-3.605A.112.112,0,0,1,1471.477,412.709Z"/><path class="cls-1" d="M1474.044,417.262a2.232,2.232,0,0,1-.842-.878,2.87,2.87,0,0,1,0-2.587,2.236,2.236,0,0,1,.842-.877,2.309,2.309,0,0,1,1.191-.314,1.927,1.927,0,0,1,1.55.637.033.033,0,0,0,.042.009.039.039,0,0,0,.02-.04v-.4a.09.09,0,0,1,.1-.1h.5a.09.09,0,0,1,.1.1v4.56a.09.09,0,0,1-.1.1h-.5a.09.09,0,0,1-.1-.1v-.4a.044.044,0,0,0-.02-.042.037.037,0,0,0-.042.011,2.107,2.107,0,0,1-1.55.637A2.309,2.309,0,0,1,1474.044,417.262Zm2.166-.57a1.267,1.267,0,0,0,.554-.554.384.384,0,0,0,.042-.184v-1.726a.384.384,0,0,0-.042-.184,1.391,1.391,0,0,0-.57-.554,1.731,1.731,0,0,0-.846-.206,1.6,1.6,0,0,0-1.227.5,2.068,2.068,0,0,0,0,2.618,1.6,1.6,0,0,0,1.227.5A1.78,1.78,0,0,0,1476.21,416.692Z"/><path class="cls-1" d="M1480.4,416.949v.463a.092.092,0,0,1-.1.1h-.185a1.111,1.111,0,0,1-.75-.232.892.892,0,0,1-.267-.713v-6.428a.091.091,0,0,1,.1-.1h.544a.091.091,0,0,1,.1.1v6.334q0,.37.308.371h.144A.091.091,0,0,1,1480.4,416.949Z"/><path class="cls-1" d="M1481.857,410.851l.554-.3a.135.135,0,0,1,.052-.009c.047,0,.072.027.072.081v2.034a.045.045,0,0,0,.051.051h.565a.09.09,0,0,1,.1.1v.441a.09.09,0,0,1-.1.1h-.565a.046.046,0,0,0-.051.052v3.964a.09.09,0,0,1-.1.1h-.545a.09.09,0,0,1-.1-.1v-3.964a.046.046,0,0,0-.051-.052h-.565a.091.091,0,0,1-.1-.1v-.441a.091.091,0,0,1,.1-.1h.565a.045.045,0,0,0,.051-.051v-1.685A.12.12,0,0,1,1481.857,410.851Z"/><path class="cls-1" d="M1487.258,412.709h.544a.09.09,0,0,1,.1.1v4.56a.09.09,0,0,1-.1.1h-.493a.091.091,0,0,1-.1-.1v-.34c0-.027-.008-.044-.026-.051s-.039,0-.066.031a1.562,1.562,0,0,1-1.242.565,1.541,1.541,0,0,1-1.176-.441,1.585,1.585,0,0,1-.415-1.13v-3.194a.09.09,0,0,1,.1-.1h.543a.09.09,0,0,1,.1.1v3.071a1.043,1.043,0,0,0,.257.764.985.985,0,0,0,.739.262,1.13,1.13,0,0,0,.615-.174,1.378,1.378,0,0,0,.463-.5.478.478,0,0,0,.052-.216v-3.2A.09.09,0,0,1,1487.258,412.709Z"/><path class="cls-1" d="M1490.112,417.473h-.544a.091.091,0,0,1-.1-.1v-4.56a.091.091,0,0,1,.1-.1h.493a.09.09,0,0,1,.1.1v.339c0,.028.008.045.024.052s.037,0,.057-.031a1.749,1.749,0,0,1,.545-.421,1.583,1.583,0,0,1,.7-.144,1.554,1.554,0,0,1,1.181.441,1.57,1.57,0,0,1,.421,1.13v3.194a.09.09,0,0,1-.1.1h-.544a.09.09,0,0,1-.1-.1V414.3a1.047,1.047,0,0,0-.257-.764.987.987,0,0,0-.738-.262,1.136,1.136,0,0,0-.617.174,1.392,1.392,0,0,0-.462.5.478.478,0,0,0-.052.216v3.2A.09.09,0,0,1,1490.112,417.473Z"/><path class="cls-1" d="M1495.523,419.377a2.374,2.374,0,0,1-.8-.57.1.1,0,0,1,0-.144l.349-.379a.085.085,0,0,1,.144,0,1.949,1.949,0,0,0,2.515.283,1.242,1.242,0,0,0,.4-1.012v-.708a.049.049,0,0,0-.031-.052c-.021-.006-.045,0-.072.031a2.039,2.039,0,0,1-1.478.545,2.308,2.308,0,0,1-1.161-.3,2.117,2.117,0,0,1-.821-.841,2.565,2.565,0,0,1-.3-1.253,2.447,2.447,0,0,1,.308-1.237,2.195,2.195,0,0,1,.837-.838,2.361,2.361,0,0,1,1.175-.3,1.952,1.952,0,0,1,1.489.575c.028.028.05.037.067.031s.026-.028.026-.062v-.339a.1.1,0,0,1,.1-.1h.5a.09.09,0,0,1,.1.1v4.806a1.772,1.772,0,0,1-.631,1.452,2.513,2.513,0,0,1-1.648.519A2.615,2.615,0,0,1,1495.523,419.377Zm2-2.89a1.488,1.488,0,0,0,.565-.524.338.338,0,0,0,.052-.184v-1.592a.308.308,0,0,0-.052-.184,1.488,1.488,0,0,0-.565-.524,1.719,1.719,0,0,0-.832-.195,1.588,1.588,0,0,0-1.2.472,1.876,1.876,0,0,0,0,2.454,1.589,1.589,0,0,0,1.2.473A1.719,1.719,0,0,0,1497.525,416.487Z"/><path class="cls-1" d="M1424.564,430.658v-3.964a.044.044,0,0,0-.05-.051h-.411a.112.112,0,0,1-.072-.025.084.084,0,0,1-.031-.067V426.1a.09.09,0,0,1,.1-.1h.411c.034,0,.05-.016.05-.051v-1.52a1.287,1.287,0,0,1,.288-.888,1.042,1.042,0,0,1,.821-.324,1.435,1.435,0,0,1,.565.134c.061.035.085.075.072.123l-.144.483c-.02.061-.065.075-.133.041a.676.676,0,0,0-.3-.082.369.369,0,0,0-.307.144.644.644,0,0,0-.113.41v1.479a.045.045,0,0,0,.051.051H1426a.091.091,0,0,1,.1.1v.452a.087.087,0,0,1-.031.067.117.117,0,0,1-.072.025h-.637a.045.045,0,0,0-.051.051v3.964a.117.117,0,0,1-.025.072.089.089,0,0,1-.068.031h-.554A.091.091,0,0,1,1424.564,430.658Z"/><path class="cls-1" d="M1430.058,426h.544a.09.09,0,0,1,.1.1v4.559a.091.091,0,0,1-.1.1h-.493a.091.091,0,0,1-.1-.1v-.34c0-.027-.008-.043-.026-.05s-.039,0-.066.03a1.558,1.558,0,0,1-1.242.565,1.536,1.536,0,0,1-1.176-.441,1.58,1.58,0,0,1-.416-1.13V426.1a.09.09,0,0,1,.1-.1h.544a.09.09,0,0,1,.1.1v3.07a1.043,1.043,0,0,0,.258.765.985.985,0,0,0,.738.262,1.123,1.123,0,0,0,.616-.175,1.367,1.367,0,0,0,.462-.5.477.477,0,0,0,.052-.215v-3.2A.091.091,0,0,1,1430.058,426Zm-2.558-1.279a.553.553,0,0,1-.164-.395.552.552,0,0,1,.945-.389.527.527,0,0,1,.164.389.545.545,0,0,1-.164.395.534.534,0,0,1-.781,0Zm2.023,0a.549.549,0,0,1-.164-.395.555.555,0,0,1,1.109,0,.549.549,0,0,1-.164.395.534.534,0,0,1-.781,0Z"/><path class="cls-1" d="M1434.483,425.9c.061,0,.092.034.092.1v.544c0,.061-.024.092-.072.092a.714.714,0,0,1-.149-.016.837.837,0,0,0-.138-.015,1.3,1.3,0,0,0-1.13.606.437.437,0,0,0-.072.256v3.184a.091.091,0,0,1-.1.1h-.543a.091.091,0,0,1-.1-.1V426.1a.091.091,0,0,1,.1-.1h.493a.09.09,0,0,1,.1.1v.369c0,.028.006.045.02.052s.031,0,.052-.02a1.6,1.6,0,0,1,1.293-.607A.844.844,0,0,1,1434.483,425.9Z"/><path class="cls-1" d="M1438.785,430.761h-.555a.091.091,0,0,1-.1-.1v-6.982a.09.09,0,0,1,.1-.1h.555a.09.09,0,0,1,.1.1v3.409c0,.02.007.032.02.035s.028,0,.042-.026l2.484-3.46a.139.139,0,0,1,.124-.061h.677a.091.091,0,0,1,.083.035c.014.025.007.054-.021.088l-2.115,2.916a.151.151,0,0,0-.01.144l2.228,3.881a.17.17,0,0,1,.02.062c0,.04-.03.062-.092.062h-.657a.127.127,0,0,1-.113-.072l-1.89-3.317c-.007-.021-.016-.031-.031-.031a.06.06,0,0,0-.041.021l-.666.934a.2.2,0,0,0-.042.134v2.228A.091.091,0,0,1,1438.785,430.761Z"/><path class="cls-1" d="M1446.126,426h.543a.091.091,0,0,1,.1.1v4.559a.091.091,0,0,1-.1.1h-.493a.091.091,0,0,1-.1-.1v-.34c0-.027-.009-.043-.026-.05s-.039,0-.066.03a1.558,1.558,0,0,1-1.242.565,1.54,1.54,0,0,1-1.177-.441,1.583,1.583,0,0,1-.415-1.13V426.1a.09.09,0,0,1,.1-.1h.544a.09.09,0,0,1,.1.1v3.07a1.047,1.047,0,0,0,.257.765.989.989,0,0,0,.739.262,1.125,1.125,0,0,0,.616-.175,1.376,1.376,0,0,0,.462-.5.477.477,0,0,0,.052-.215v-3.2A.091.091,0,0,1,1446.126,426Z"/><path class="cls-1" d="M1449.606,430.237v.462a.092.092,0,0,1-.1.1h-.185a1.115,1.115,0,0,1-.749-.231.892.892,0,0,1-.267-.714v-6.428a.09.09,0,0,1,.1-.1h.543a.09.09,0,0,1,.1.1v6.335c0,.246.1.37.308.37h.144A.091.091,0,0,1,1449.606,430.237Z"/><path class="cls-1" d="M1451.064,424.138l.554-.3a.134.134,0,0,1,.052-.01c.047,0,.072.027.072.082v2.033a.044.044,0,0,0,.051.051h.565a.09.09,0,0,1,.1.1v.441a.091.091,0,0,1-.1.1h-.565a.045.045,0,0,0-.051.051v3.964a.091.091,0,0,1-.1.1h-.545a.091.091,0,0,1-.1-.1v-3.964a.045.045,0,0,0-.051-.051h-.565a.091.091,0,0,1-.1-.1V426.1a.091.091,0,0,1,.1-.1h.565a.045.045,0,0,0,.051-.051v-1.684A.119.119,0,0,1,1451.064,424.138Z"/><path class="cls-1" d="M1456.465,426h.544a.091.091,0,0,1,.1.1v4.559a.092.092,0,0,1-.1.1h-.493a.091.091,0,0,1-.1-.1v-.34c0-.027-.008-.043-.026-.05s-.039,0-.066.03a1.558,1.558,0,0,1-1.242.565,1.538,1.538,0,0,1-1.176-.441,1.583,1.583,0,0,1-.415-1.13V426.1a.09.09,0,0,1,.1-.1h.544a.091.091,0,0,1,.1.1v3.07a1.047,1.047,0,0,0,.257.765.986.986,0,0,0,.738.262,1.123,1.123,0,0,0,.616-.175,1.378,1.378,0,0,0,.463-.5.476.476,0,0,0,.051-.215v-3.2A.091.091,0,0,1,1456.465,426Z"/><path class="cls-1" d="M1460.89,425.9c.061,0,.092.034.092.1v.544c0,.061-.024.092-.072.092a.721.721,0,0,1-.149-.016.837.837,0,0,0-.138-.015,1.3,1.3,0,0,0-1.13.606.437.437,0,0,0-.072.256v3.184a.091.091,0,0,1-.1.1h-.544a.091.091,0,0,1-.1-.1V426.1a.091.091,0,0,1,.1-.1h.493a.091.091,0,0,1,.1.1v.369c0,.028,0,.045.02.052s.03,0,.051-.02a1.6,1.6,0,0,1,1.293-.607A.829.829,0,0,1,1460.89,425.9Z"/><path class="cls-1" d="M1467.225,426h.545a.091.091,0,0,1,.1.1v4.559a.091.091,0,0,1-.1.1h-.494a.091.091,0,0,1-.1-.1v-.34a.049.049,0,0,0-.026-.05c-.018-.008-.04,0-.067.03a1.556,1.556,0,0,1-1.243.565,1.534,1.534,0,0,1-1.174-.441,1.58,1.58,0,0,1-.417-1.13V426.1a.091.091,0,0,1,.1-.1h.544a.09.09,0,0,1,.1.1v3.07a1.051,1.051,0,0,0,.257.765.993.993,0,0,0,.74.262,1.13,1.13,0,0,0,.616-.175,1.384,1.384,0,0,0,.462-.5.476.476,0,0,0,.051-.215v-3.2A.091.091,0,0,1,1467.225,426Z"/><path class="cls-1" d="M1470.079,430.761h-.545a.091.091,0,0,1-.1-.1V426.1a.09.09,0,0,1,.1-.1h.493a.091.091,0,0,1,.1.1v.338c0,.029.008.045.026.052s.035,0,.057-.031a1.742,1.742,0,0,1,.543-.421,1.606,1.606,0,0,1,.7-.144,1.557,1.557,0,0,1,1.181.442,1.575,1.575,0,0,1,.421,1.13v3.193a.092.092,0,0,1-.1.1h-.545a.092.092,0,0,1-.1-.1v-3.071a1.048,1.048,0,0,0-.256-.764.986.986,0,0,0-.739-.262,1.128,1.128,0,0,0-.616.175,1.373,1.373,0,0,0-.462.5.47.47,0,0,0-.051.216v3.2A.091.091,0,0,1,1470.079,430.761Z"/><path class="cls-1" d="M1478.241,423.327h.545a.09.09,0,0,1,.1.1v7.229a.091.091,0,0,1-.1.1h-.5a.091.091,0,0,1-.1-.1v-.36c0-.034-.008-.053-.026-.056s-.039.009-.066.036a1.939,1.939,0,0,1-1.52.585,2.309,2.309,0,0,1-1.191-.314,2.229,2.229,0,0,1-.842-.877,2.87,2.87,0,0,1,0-2.587,2.238,2.238,0,0,1,.842-.878,2.309,2.309,0,0,1,1.191-.314,2.047,2.047,0,0,1,1.479.544c.027.029.049.038.066.031s.026-.027.026-.061v-2.978A.09.09,0,0,1,1478.241,423.327Zm-.718,6.653a1.488,1.488,0,0,0,.574-.555.342.342,0,0,0,.042-.164V427.5a.348.348,0,0,0-.042-.164,1.492,1.492,0,0,0-.574-.554,1.708,1.708,0,0,0-.843-.2,1.6,1.6,0,0,0-1.226.5,2.067,2.067,0,0,0,0,2.617,1.6,1.6,0,0,0,1.226.5A1.708,1.708,0,0,0,1477.523,429.98Z"/><path class="cls-1" d="M1483.406,423.573h3.5a.09.09,0,0,1,.1.1v.523a.09.09,0,0,1-.1.1h-2.792a.045.045,0,0,0-.052.051v2.331a.046.046,0,0,0,.052.052h2.792a.09.09,0,0,1,.1.1v.524a.09.09,0,0,1-.1.1h-2.792c-.035,0-.052.016-.052.05v2.465a.046.046,0,0,0,.052.052h2.792a.09.09,0,0,1,.1.1v.524a.091.091,0,0,1-.1.1h-3.5a.091.091,0,0,1-.1-.1v-6.982A.091.091,0,0,1,1483.406,423.573Z"/><path class="cls-1" d="M1491.3,426h.544a.091.091,0,0,1,.1.1v4.559a.092.092,0,0,1-.1.1h-.493a.091.091,0,0,1-.1-.1v-.34c0-.027-.008-.043-.026-.05s-.039,0-.066.03a1.558,1.558,0,0,1-1.242.565,1.538,1.538,0,0,1-1.176-.441,1.583,1.583,0,0,1-.415-1.13V426.1a.09.09,0,0,1,.1-.1h.544a.091.091,0,0,1,.1.1v3.07a1.047,1.047,0,0,0,.257.765.986.986,0,0,0,.738.262,1.123,1.123,0,0,0,.616-.175,1.378,1.378,0,0,0,.463-.5.476.476,0,0,0,.051-.215v-3.2A.091.091,0,0,1,1491.3,426Z"/><path class="cls-1" d="M1495.727,425.9c.061,0,.092.034.092.1v.544c0,.061-.024.092-.072.092a.721.721,0,0,1-.149-.016.837.837,0,0,0-.138-.015,1.3,1.3,0,0,0-1.13.606.437.437,0,0,0-.072.256v3.184a.091.091,0,0,1-.1.1h-.544a.091.091,0,0,1-.1-.1V426.1a.091.091,0,0,1,.1-.1h.493a.091.091,0,0,1,.1.1v.369c0,.028,0,.045.02.052s.03,0,.051-.02a1.6,1.6,0,0,1,1.293-.607A.829.829,0,0,1,1495.727,425.9Z"/><path class="cls-1" d="M1497.426,430.529a2.384,2.384,0,0,1-.863-.9,2.65,2.65,0,0,1,0-2.5,2.387,2.387,0,0,1,.863-.9,2.421,2.421,0,0,1,2.454,0,2.387,2.387,0,0,1,.863.9,2.65,2.65,0,0,1,0,2.5,2.384,2.384,0,0,1-.863.9,2.421,2.421,0,0,1-2.454,0Zm2.075-.595a1.674,1.674,0,0,0,.585-.653,2.049,2.049,0,0,0,0-1.807,1.668,1.668,0,0,0-.585-.651,1.607,1.607,0,0,0-1.7,0,1.66,1.66,0,0,0-.585.651,2.049,2.049,0,0,0,0,1.807,1.666,1.666,0,0,0,.585.653,1.607,1.607,0,0,0,1.7,0Z"/><path class="cls-1" d="M1502.924,432.783h-.544a.092.092,0,0,1-.1-.1V426.1a.091.091,0,0,1,.1-.1h.493a.091.091,0,0,1,.1.1v.359q0,.052.024.057c.018,0,.041-.009.068-.036a1.909,1.909,0,0,1,1.519-.586,2.331,2.331,0,0,1,1.2.314,2.243,2.243,0,0,1,.841.878,2.87,2.87,0,0,1,0,2.587,2.234,2.234,0,0,1-.841.877,2.331,2.331,0,0,1-1.2.314,1.983,1.983,0,0,1-1.469-.545c-.027-.027-.049-.036-.066-.03s-.026.028-.026.062v2.33A.091.091,0,0,1,1502.924,432.783Zm2.787-3.1a2.067,2.067,0,0,0,0-2.617,1.6,1.6,0,0,0-1.227-.5,1.826,1.826,0,0,0-.862.2,1.24,1.24,0,0,0-.554.56.373.373,0,0,0-.042.164v1.766a.367.367,0,0,0,.042.164,1.247,1.247,0,0,0,.554.561,1.826,1.826,0,0,0,.862.2A1.6,1.6,0,0,0,1505.711,429.687Z"/><path class="cls-1" d="M1508.972,430.549a2.229,2.229,0,0,1-.842-.877,2.87,2.87,0,0,1,0-2.587,2.238,2.238,0,0,1,.842-.878,2.306,2.306,0,0,1,1.191-.314,1.93,1.93,0,0,1,1.55.637.035.035,0,0,0,.042.01.04.04,0,0,0,.02-.04v-.4a.09.09,0,0,1,.1-.1h.5a.091.091,0,0,1,.1.1v4.559a.092.092,0,0,1-.1.1h-.5a.091.091,0,0,1-.1-.1v-.4a.043.043,0,0,0-.02-.041.036.036,0,0,0-.042.01,2.107,2.107,0,0,1-1.55.637A2.306,2.306,0,0,1,1508.972,430.549Zm2.166-.569a1.269,1.269,0,0,0,.554-.555.393.393,0,0,0,.041-.184v-1.726a.4.4,0,0,0-.041-.184,1.409,1.409,0,0,0-.57-.554,1.732,1.732,0,0,0-.847-.2,1.6,1.6,0,0,0-1.227.5,2.067,2.067,0,0,0,0,2.617,1.6,1.6,0,0,0,1.227.5A1.784,1.784,0,0,0,1511.138,429.98Z"/><path d="M0,106.6V0H35.5V9.3H10.6V97.4H35.4v9.3H0Z"/><path d="M71.4,90.3V59L43.8,7.4H58.6L69.2,28.1l8.6,17.7h.7l8.7-17.7L97.7,7.4h14.5L84.7,59V90.2H71.4Z"/><path d="M108.3,59.7c0-19.7,11.4-32.2,28.9-32.2,17.2,0,28.1,12.4,28.1,30.4v4.9H121.4v2c0,9.6,6.4,16.4,17,16.4a19.1,19.1,0,0,0,17-9.4l8.1,7.1c-4.2,7.1-12.7,12.7-25.3,12.7C119.4,91.7,108.3,79.2,108.3,59.7Zm13.1-6v.8h30.8V53.3c0-9.6-5.9-15.9-15-15.9C127.9,37.4,121.4,44.2,121.4,53.7Z"/><path d="M174.7,79.9l8-7.1c5.3,5.8,11.9,9,21,9,8.3,0,14-2.7,14-8.8,0-5.2-4.2-6.7-9.4-7.4l-9.7-1.5c-9.6-1.4-20.4-4.9-20.4-17.5,0-12.5,10.5-19.1,26.1-19.1,11.4,0,19.6,3.6,25.2,9.6l-7.2,7.6c-3.2-3.7-8.8-7.4-18.4-7.4-8.4,0-12.9,2.9-12.9,8.2,0,5.2,4.3,6.7,9.4,7.4l9.7,1.5c9.7,1.4,20.4,4.8,20.4,17.3,0,12.4-10.2,19.8-27,19.8C190.3,91.7,180.5,87,174.7,79.9Z"/><path d="M266.9,0V106.7H231.4V97.4h24.8V9.3H231.4V0Z"/><path d="M0,226.2V119.5H35.5v9.3H10.6v88.1H35.4v9.3Z"/><path d="M59.9,146H58.8v63.8H47.2V126.9H64.3l24.3,63.8h1.1V126.9h11.6v82.9h-17Z"/><path d="M110.6,179.1c0-19.6,11-32.1,29.1-32.1s29.1,12.5,29.1,32.1-11,32.1-29.1,32.1S110.6,198.7,110.6,179.1Zm44.6,4.7v-9.3c0-11.4-6.2-17.2-15.6-17.2S124,163.1,124,174.5v9.3c0,11.4,6.2,17.2,15.6,17.2S155.2,195.2,155.2,183.8Z"/><path d="M206.5,119.5V226.2H171v-9.3h24.8V128.8H171v-9.3Z"/><path d="M0,345.6V239H35.5v9.3H10.6v88.1H35.4v9.3H0Z"/><path d="M92.5,289.6l.4-24.9h-1L75.3,307.3,58.7,264.7h-1l.4,24.9v39.7H46.3V246.4H62.6l12.7,32.9h.8l12.8-32.9h15.3v82.9H92.4V289.6Z"/><path d="M166.1,329.2c-7.4,0-11-4.2-11.8-10.3h-.6c-2.4,7.4-8.8,11.8-18.4,11.8-12.5,0-20.5-7-20.5-18.5,0-11.9,8.7-18.3,26.8-18.3h11.8v-4.8c0-8.2-4.4-12.5-13.2-12.5-7.8,0-12.5,3.3-15.8,8.4l-7.7-6.3c3.4-6.7,11.8-12.2,24.7-12.2,15.4,0,24.9,7.7,24.9,21.7V319H174v10.2Zm-12.7-18.3V302H141.9c-9.5,0-14,3-14,8.4v2.4c0,5.5,4.3,8.3,11.2,8.3C147.4,321.2,153.4,317,153.4,310.9Z"/><path d="M224.5,267.9h13.1l-29.7,73.2c-3.2,7.8-7.6,11.9-17.3,11.9H180.3V342.5h14.4l5.6-14.1-24.7-60.5h13.5l9.7,25.7,7.6,21h.7l7.6-21Z"/><path d="M247.8,241.3h12.9v37.1h.7c3.6-7.4,9.5-11.9,18.5-11.9,14.4,0,23.6,11,23.6,32.1,0,21-9.3,32.1-23.6,32.1-9,0-15-4.5-18.5-11.9h-.7v10.5H247.8Zm42.1,62.3v-10c0-10-5.6-16.5-15.3-16.5-7.5,0-13.9,3.8-13.9,11.3v20.4c0,7.5,6.4,11.3,13.9,11.3C284.4,320.1,289.9,313.6,289.9,303.6Z"/><path d="M313.7,298.7c0-19.7,11.4-32.2,28.9-32.2,17.2,0,28.1,12.4,28.1,30.4v4.9H326.8v2c0,9.6,6.4,16.4,17,16.4a19.1,19.1,0,0,0,17-9.4l8.1,7.1c-4.2,7.1-12.7,12.7-25.3,12.7C324.8,330.7,313.7,318.2,313.7,298.7Zm13.1-6.1v.8h30.8v-1.2c0-9.6-5.9-15.9-15-15.9C333.3,276.4,326.8,283.1,326.8,292.6Z"/><path d="M406.5,239V345.7H371v-9.3h24.8V248.3H371V239Z"/><path d="M7.3,441.7v-3.1c0-4.5,2.9-8.2,10.3-8.2s10.3,3.7,10.3,8.2v3.1c0,4.5-2.9,8.2-10.3,8.2S7.3,446.3,7.3,441.7Z"/><path d="M97,448.8c-7.4,0-11-4.2-11.8-10.3h-.5c-2.4,7.4-8.8,11.8-18.4,11.8-12.5,0-20.5-7-20.5-18.5,0-11.9,8.7-18.3,26.8-18.3H84.4v-4.8c0-8.2-4.4-12.5-13.2-12.5-7.8,0-12.5,3.3-15.8,8.4l-7.7-6.3c3.4-6.7,11.8-12.2,24.7-12.2,15.4,0,24.9,7.7,24.9,21.7v30.8H105v10.2ZM84.3,430.5v-8.9H72.8c-9.5,0-14,3-14,8.4v2.4c0,5.5,4.3,8.3,11.2,8.3C78.2,440.7,84.3,436.5,84.3,430.5Z"/><path d="M115.3,387.5h12.9V398h.7c3.6-7.4,9.5-11.9,18.5-11.9,14.4,0,23.6,11,23.6,32.1,0,21-9.3,32.1-23.6,32.1-9,0-15-4.5-18.5-11.9h-.7v34.2H115.3Zm42.2,35.6v-10c0-10-5.6-16.5-15.3-16.5-7.5,0-13.9,3.8-13.9,11.3v20.4c0,7.5,6.4,11.3,13.9,11.3C151.9,439.6,157.5,433.1,157.5,423.1Z"/><path d="M184,387.5h12.9V398h.7c3.6-7.4,9.5-11.9,18.5-11.9,14.4,0,23.6,11,23.6,32.1,0,21-9.3,32.1-23.6,32.1-9,0-15-4.5-18.5-11.9h-.7v34.2H184Zm42.1,35.6v-10c0-10-5.6-16.5-15.3-16.5-7.5,0-13.9,3.8-13.9,11.3v20.4c0,7.5,6.4,11.3,13.9,11.3C220.6,439.6,226.1,433.1,226.1,423.1Z"/><text class="cls-2" transform="translate(1185.551 415.142)">Ge<tspan class="cls-3" x="34.832" y="0">f</tspan><tspan class="cls-4" x="43.791" y="0">รถ</tspan><tspan class="cls-5" x="59.472" y="0">r</tspan><tspan x="69.579" y="0">de</tspan><tspan class="cls-6" x="101.19" y="0">r</tspan><tspan x="111.578" y="0">t </tspan><tspan class="cls-7" x="128.014" y="0">v</tspan><tspan class="cls-4" x="141.565" y="0">on:</tspan></text></svg>