<?xml version="1.0" encoding="utf-8"?>
<!-- Generator: Adobe Illustrator 28.1.0, SVG Export Plug-In . SVG Version: 6.00 Build 0)  -->
<svg version="1.1" id="Ebene_1" xmlns="http://www.w3.org/2000/svg" xmlns:xlink="http://www.w3.org/1999/xlink" x="0px" y="0px"
	 viewBox="0 0 430 500" style="enable-background:new 0 0 430 500;" xml:space="preserve">
<g>
	<path d="M12.3,120.2V13.6h35.5v9.3H22.9V111h24.8v9.3H12.3V120.2z"/>
	<path d="M83.7,103.9V72.6L56.1,21h14.8l10.6,20.7l8.6,17.7h0.7l8.7-17.7L110,21h14.5L97,72.6v31.2L83.7,103.9L83.7,103.9z"/>
	<path d="M120.6,73.3c0-19.7,11.4-32.2,28.9-32.2c17.2,0,28.1,12.4,28.1,30.4v4.9h-43.9v2c0,9.6,6.4,16.4,17,16.4
		c7.8,0,13.5-3.7,17-9.4l8.1,7.1c-4.2,7.1-12.7,12.7-25.3,12.7C131.7,105.3,120.6,92.8,120.6,73.3z M133.7,67.3v0.8h30.8v-1.2
		c0-9.6-5.9-15.9-15-15.9C140.2,51,133.7,57.8,133.7,67.3z"/>
	<path d="M187,93.5l8-7.1c5.3,5.8,11.9,9,21,9c8.3,0,14-2.7,14-8.8c0-5.2-4.2-6.7-9.4-7.4l-9.7-1.5c-9.6-1.4-20.4-4.9-20.4-17.5
		c0-12.5,10.5-19.1,26.1-19.1c11.4,0,19.6,3.6,25.2,9.6l-7.2,7.6c-3.2-3.7-8.8-7.4-18.4-7.4c-8.4,0-12.9,2.9-12.9,8.2
		c0,5.2,4.3,6.7,9.4,7.4l9.7,1.5c9.7,1.4,20.4,4.8,20.4,17.3c0,12.4-10.2,19.8-27,19.8C202.6,105.3,192.8,100.6,187,93.5z"/>
	<path d="M279.2,13.6v106.7h-35.5V111h24.8V22.9h-24.8v-9.3C243.7,13.6,279.2,13.6,279.2,13.6z"/>
</g>
<g>
	<path d="M12.3,239.8V133.1h35.5v9.3H22.9v88.1h24.8v9.3H12.3z"/>
	<path d="M72.2,159.6h-1.1v63.8H59.5v-82.9h17.1l24.3,63.8h1.1v-63.8h11.6v82.9h-17L72.2,159.6z"/>
	<path d="M122.9,192.7c0-19.6,11-32.1,29.1-32.1s29.1,12.5,29.1,32.1s-11,32.1-29.1,32.1S122.9,212.3,122.9,192.7z M167.5,197.4
		v-9.3c0-11.4-6.2-17.2-15.6-17.2c-9.4,0-15.6,5.8-15.6,17.2v9.3c0,11.4,6.2,17.2,15.6,17.2C161.3,214.6,167.5,208.8,167.5,197.4z"
		/>
	<path d="M218.8,133.1v106.7h-35.5v-9.3h24.8v-88.1h-24.8v-9.3L218.8,133.1L218.8,133.1z"/>
</g>
<g>
	<path d="M12.3,359.2V252.6h35.5v9.3H22.9V350h24.8v9.3L12.3,359.2L12.3,359.2z"/>
	<path d="M104.8,303.2l0.4-24.9h-1l-16.6,42.6L71,278.3h-1l0.4,24.9v39.7H58.6V260h16.3l12.7,32.9h0.8l12.8-32.9h15.3v82.9h-11.8
		v-39.7H104.8z"/>
	<path d="M178.4,342.8c-7.4,0-11-4.2-11.8-10.3H166c-2.4,7.4-8.8,11.8-18.4,11.8c-12.5,0-20.5-7-20.5-18.5
		c0-11.9,8.7-18.3,26.8-18.3h11.8v-4.8c0-8.2-4.4-12.5-13.2-12.5c-7.8,0-12.5,3.3-15.8,8.4l-7.7-6.3c3.4-6.7,11.8-12.2,24.7-12.2
		c15.4,0,24.9,7.7,24.9,21.7v30.8h7.7v10.2L178.4,342.8L178.4,342.8z M165.7,324.5v-8.9h-11.5c-9.5,0-14,3-14,8.4v2.4
		c0,5.5,4.3,8.3,11.2,8.3C159.7,334.8,165.7,330.6,165.7,324.5z"/>
	<path d="M236.8,281.5h13.1l-29.7,73.2c-3.2,7.8-7.6,11.9-17.3,11.9h-10.3v-10.5H207l5.6-14.1l-24.7-60.5h13.5l9.7,25.7l7.6,21h0.7
		l7.6-21L236.8,281.5z"/>
	<path d="M260.1,254.9H273V292h0.7c3.6-7.4,9.5-11.9,18.5-11.9c14.4,0,23.6,11,23.6,32.1c0,21-9.3,32.1-23.6,32.1
		c-9,0-15-4.5-18.5-11.9H273v10.5h-12.9V254.9z M302.2,317.2v-10c0-10-5.6-16.5-15.3-16.5c-7.5,0-13.9,3.8-13.9,11.3v20.4
		c0,7.5,6.4,11.3,13.9,11.3C296.7,333.7,302.2,327.2,302.2,317.2z"/>
	<path d="M326,312.3c0-19.7,11.4-32.2,28.9-32.2c17.2,0,28.1,12.4,28.1,30.4v4.9h-43.9v2c0,9.6,6.4,16.4,17,16.4
		c7.8,0,13.5-3.7,17-9.4l8.1,7.1c-4.2,7.1-12.7,12.7-25.3,12.7C337.1,344.3,326,331.8,326,312.3z M339.1,306.2v0.8h30.8v-1.2
		c0-9.6-5.9-15.9-15-15.9C345.6,290,339.1,296.7,339.1,306.2z"/>
	<path d="M418.8,252.6v106.7h-35.5V350h24.8v-88.1h-24.8v-9.3L418.8,252.6L418.8,252.6z"/>
</g>
<g>
	<path d="M19.6,455.3v-3.1c0-4.5,2.9-8.2,10.3-8.2s10.3,3.7,10.3,8.2v3.1c0,4.5-2.9,8.2-10.3,8.2S19.6,459.9,19.6,455.3z"/>
	<path d="M109.3,462.4c-7.4,0-11-4.2-11.8-10.3H97c-2.4,7.4-8.8,11.8-18.4,11.8c-12.5,0-20.5-7-20.5-18.5c0-11.9,8.7-18.3,26.8-18.3
		h11.8v-4.8c0-8.2-4.4-12.5-13.2-12.5c-7.8,0-12.5,3.3-15.8,8.4l-7.7-6.3c3.4-6.7,11.8-12.2,24.7-12.2c15.4,0,24.9,7.7,24.9,21.7
		v30.8h7.7v10.2L109.3,462.4L109.3,462.4z M96.6,444.1v-8.9H85.1c-9.5,0-14,3-14,8.4v2.4c0,5.5,4.3,8.3,11.2,8.3
		C90.5,454.3,96.6,450.1,96.6,444.1z"/>
	<path d="M127.6,401.1h12.9v10.5h0.7c3.6-7.4,9.5-11.9,18.5-11.9c14.4,0,23.6,11,23.6,32.1c0,21-9.3,32.1-23.6,32.1
		c-9,0-15-4.5-18.5-11.9h-0.7v34.2h-12.9V401.1z M169.8,436.7v-10c0-10-5.6-16.5-15.3-16.5c-7.5,0-13.9,3.8-13.9,11.3v20.4
		c0,7.5,6.4,11.3,13.9,11.3C164.2,453.2,169.8,446.7,169.8,436.7z"/>
	<path d="M196.3,401.1h12.9v10.5h0.7c3.6-7.4,9.5-11.9,18.5-11.9c14.4,0,23.6,11,23.6,32.1c0,21-9.3,32.1-23.6,32.1
		c-9,0-15-4.5-18.5-11.9h-0.7v34.2h-12.9V401.1z M238.4,436.7v-10c0-10-5.6-16.5-15.3-16.5c-7.5,0-13.9,3.8-13.9,11.3v20.4
		c0,7.5,6.4,11.3,13.9,11.3C232.9,453.2,238.4,446.7,238.4,436.7z"/>
</g>
</svg>
