<svg id="Ebene_1" data-name="Ebene 1" xmlns="http://www.w3.org/2000/svg" viewBox="0 0 453.91 315.45"><path d="M38.78,207.69A10.14,10.14,0,0,1,40.94,209c1.69,1.78,4,2.32,6.07,3.35,1.83.9,3.82.53,5.74.64,1.47.07,3,0,4.42.06,1.85,0,1.9-.44,1.56-2.18-.42-2.19-2-3.79-2.44-5.92-.11-.52-.75-.93-1.12-1.41-.83-1.1-1.71-2.16-2.44-3.32-1.2-1.9-2.26-3.89-3.44-5.8a7.51,7.51,0,0,1-1.54-4.74c.1-1.15-.6-2.37-1-3.56-.28-.94-.59-1.88-.89-2.83,1.4-1,3-1.63,2.93-3.57a1.78,1.78,0,0,1,1.29-.33,12.45,12.45,0,0,1,2.68,2.16c2,2.29,2.63,2.51,5.6,1.58.43-.14.88-.21,1.38-.33,1.3,2,2.61,3.91,4.8,5a5.82,5.82,0,0,1,1.83,2.08,14,14,0,0,0,9.53,6.5c2.3.4,4.56,1,6.87,1.36,2,.31,2.48-.16,2.67-2.2.39-4.16.66-8.33,1.17-12.48.67-5.4,1.62-10.76,2.26-16.16.29-2.4,1.06-4.94-.67-7.23-.2-.26,0-.9.12-1.31,2.29-6.28,4-12.73,5.69-19.18,1.29-4.87,3.23-9.56,4.62-14.41s4.09-9.16,6.53-13.54a47.49,47.49,0,0,1,3-4.68c3.23-4.47,6.53-8.88,9.78-13.33.73-1,1.18-2.35,2.12-3a74.67,74.67,0,0,1,8.62-5.48,17.41,17.41,0,0,0,3.6-2.44c2.35-2.1,4.74-4.16,7.28-6a9.76,9.76,0,0,1,3.71-1.3c1.8-.37,3.66-.54,5.49-.79.16,0,.35,0,.46-.06,2-1.52,4.48-1.06,6.72-1.41a41.91,41.91,0,0,1,7.17,0,1,1,0,0,1,.61.31c1.26,1.5,3.08,1.69,4.8,2.14,3.38.88,5.91,3,8.12,5.59,1.62,1.87,3.07,3.89,4.52,5.9,2.27,3.14,4.32,6.44,6.72,9.48a74.66,74.66,0,0,1,7.92,12.84,87,87,0,0,1,5.81,13.39,66.65,66.65,0,0,0,4.21,9.34c2.62,5.34,6,10.3,8,15.94a4.4,4.4,0,0,1,.44,1.31c.11,3.7.87,7.34.94,11.08.11,5.41-.17,10.87,1,16.26.63,3,.59,6.21,1.24,9.24a67.3,67.3,0,0,1,1.06,11.12,29.07,29.07,0,0,1-.52,5.56c-.74,5.07-1.65,10.12-2.29,15.2-.58,4.53-.93,9.09-1.31,13.64a51.75,51.75,0,0,0-.2,5.57,22.84,22.84,0,0,1-1.53,8.19c-1.55,4.23-3.08,8.45-4.7,12.65-2.4,6.22-4.81,12.44-7.35,18.6a61.75,61.75,0,0,1-3,5.52c-2.43,4.54-5.69,8.53-8.87,12.52-1.47,1.84-3.58,3.18-5.45,4.68a29.39,29.39,0,0,1-3.78,2.72,63,63,0,0,1-13.77,6.23,32.24,32.24,0,0,1-6.43,1,26.44,26.44,0,0,1-5.1-.26,73.86,73.86,0,0,1-7.56-1.2,100.28,100.28,0,0,1-10.56-2.86,68.34,68.34,0,0,1-17.89-8.86,51.23,51.23,0,0,1-11-10.33,61.82,61.82,0,0,1-6.2-10.09c-3.56-7.25-6-15-8.8-22.54-.41-1.09-.66-2.23-1.08-3.31a15.13,15.13,0,0,0-1-1.86c-2-.35-3.39.46-4.88,1.14a154.12,154.12,0,0,1-21.1,8.06,15.88,15.88,0,0,1-2.3.28c-3.46.5-6.91,1-10.36,1.52a22.88,22.88,0,0,1-8.09-.3q-7.51-1.56-14.94-3.58A7.19,7.19,0,0,1,24.26,252a3.2,3.2,0,0,0-1.8-.91,5.07,5.07,0,0,0-2.31-.18c-2.29.55-4.26-.64-5.82-1.69s-3.45-1.77-4.13-3.79a1.42,1.42,0,0,0-1.07-.69c-2.56-.12-4.43-1.52-6.43-3.26a6.92,6.92,0,0,1,5.29-4A90.74,90.74,0,0,1,21,237a105,105,0,0,1,11.55,1.45c3.67.58,7.28,0,10.92-.18a11.61,11.61,0,0,1,3.23.07c2.82.69,5.35.45,7.59-1.57a5.23,5.23,0,0,1,1.69-.72c1.14-.44,2.29-.86,3.84-1.44-.77-.63-1.16-1.17-1.66-1.31-2.31-.63-4.49-1.7-7-1.56a14.37,14.37,0,0,1-7-1.62c-2.88-1.35-4.93-3.65-7.09-5.86-2.66-2.72-4.81-5.86-7.21-8.8a3.57,3.57,0,0,1-.88-2.3,3.63,3.63,0,0,0-.92-2.51A4.31,4.31,0,0,1,26.41,207a6.11,6.11,0,0,0-.21-1c1.21-1.6,4.07-.9,4.64-3.91.95,1.21,1.62,2,2.22,2.84s1,1.58,1.55,2.32c1.19,1.55,1.45,1.58,3.28.71C38.16,207.9,38.46,207.81,38.78,207.69ZM193.2,161.22h.14c0-.46,0-.93,0-1.4a27.25,27.25,0,0,0-1.65-9.59c-1.42-3.51-3.43-6.77-5.09-10.19-1.41-2.92-2.77-5.87-4-8.86-1.17-2.79-2-5.75-3.31-8.44q-4-8-8.47-15.8c-1.42-2.47-3.35-4.65-5-7-1.89-2.65-3.74-5.33-5.61-8-.78-1.11-1.67-2.25-3.13-2.14a8.3,8.3,0,0,0-6.45,3.27,14.73,14.73,0,0,1-3.07,3.41c-2.44,1.89-4.94,3.72-7.38,5.61-.78.6-1.39.34-2.13,0-2.17-1.15-3.5-1-5.28.65a36,36,0,0,0-4.06,4.49c-1.61,2.18-2.92,4.59-4.52,6.78-4,5.54-7.78,11.25-10.2,17.72-.93,2.47-2.13,4.84-3,7.34-1.17,3.45-2.16,7-3.13,10.48a50.65,50.65,0,0,0-1.41,6.35c-.63,4.53-1,9.1-1.63,13.63-.66,4.69-1.54,9.35-2.28,14-.27,1.68-.46,3.38-.64,5.07-.11,1-.13,2.12-.24,3.17-.08.85-.33,1.69-.34,2.54,0,2.1.9,2.81,3,2.3,1.21-.3,2.4-1,3.58-1,3.25.12,5.46-1.42,7.3-3.83.19-.25.43-.45.63-.69a24.65,24.65,0,0,1,10.06-7,9.2,9.2,0,0,0,2.08-1c3.08-2.35,6.73-3.5,10.22-5,5.34-2.27,11-3.88,16-7a4.65,4.65,0,0,1,2-.53c3.62-.3,7.26-.5,10.88-.86.85-.08,2.08-.44,2.41-1.05,1.17-2.15,2.87-2.08,4.8-1.66,5.09,1.12,9.94,3,14.87,4.59,4,1.32,4.74,1.27,4.68-3.44C193.72,165.86,193.39,163.54,193.2,161.22ZM188.73,243a7.92,7.92,0,0,0,1-1.25c.44-1.08.83-2.18,1.2-3.28a23,23,0,0,0,1.1-6.86c.07-3,.59-6,.84-9,.19-2.31.11-4.67.42-7,.74-5.46,1.51-10.93,2.54-16.34.6-3.19-.59-5.31-3.11-6.9a55.35,55.35,0,0,0-13.47-5.71,29.37,29.37,0,0,0-13.15-.77,14.15,14.15,0,0,0-3.44.44c-3.05,1.33-6.08,2.75-9,4.37-4.12,2.31-8.19,4.73-12.15,7.31a80.79,80.79,0,0,0-7.4,5.65,25.18,25.18,0,0,0-3,3.31,1.54,1.54,0,0,0,0,2.34,6.79,6.79,0,0,1,4.64,2.22c1.09,1.09,2.41,1.92,4.19.94a5.53,5.53,0,0,1,2.74-.16c.84,0,1.67.32,2.52.41a3,3,0,0,1,3,3.11,24.13,24.13,0,0,0,.49,5.06,4.48,4.48,0,0,1-.72,3.92c-.5.85-1.17,1.34-2.1.74-1.26-.8-2.1-.27-2.71.79a36.61,36.61,0,0,0-3.07,5.71,12.64,12.64,0,0,0-.61,5c.12,1.9.76,3.77,1.07,5.67.39,2.41.82,2.86,3.19,2.41,2.14-.41,4.24-1,6.34-1.59,4.22-1.16,8-3,10.51-6.81,1-1.48,2-2.91,3.06-4.34a3.78,3.78,0,0,1,1.26-1.31,5.55,5.55,0,0,0,2.7-3.08,6.09,6.09,0,0,1,4-3.55q4-1.06,8.16-1.92a2.5,2.5,0,0,1,2.82,1.19,5.31,5.31,0,0,0,3,2.1,5.21,5.21,0,0,1,2.18,1.57c2.09,2.77,1.91,5.93,1.23,9.09-.25,1.14-.73,2.22-1,3.35A3.21,3.21,0,0,0,188.73,243Zm-61.45-30.79c-.47-.1-.65-.19-.76-.14a4.22,4.22,0,0,0-.79.47c-3.2,2.3-5.47,5.48-8,8.43-3.92,4.62-7.72,9.34-11.69,13.93a4.57,4.57,0,0,0-1.28,4.22c.51,2.51.82,5.07,1.35,7.57.8,3.79,1.54,7.6,2.62,11.31a50.46,50.46,0,0,0,5.47,12c.81,1.32,1.63,2.64,2.36,4,1.85,3.46,4.16,6.39,8.08,7.65a5.31,5.31,0,0,1,1.06.48c3.24,2,6.41,4.07,9.74,5.89,3.68,2,7.38,4.09,11.72,4.35s8.86.14,12.87-2.25c1.79-1.07,3.58-2.17,5.45-3.08a19.18,19.18,0,0,0,6.42-5.25c1.57-1.93,2.84-4.08,4.27-6.12a31.5,31.5,0,0,0,2.67-3.81c1.42-2.94,2.64-6,3.89-9,.13-.33-.07-.8-.14-1.34a6.32,6.32,0,0,0-3.39,2.62A64.13,64.13,0,0,1,168.71,274c-2.79,2.22-6.23,3.29-9.77,4.11a34.37,34.37,0,0,1-18.63-.36c-.44-.14-.92-.16-1.35-.3a9.86,9.86,0,0,1-2.51-1c-3.83-2.65-6.27-6.42-8.17-10.56a86.51,86.51,0,0,1-3.38-8.16c-1.07-3.15-2.4-6.25-2.6-9.65-.06-.92-.12-2.16-.7-2.65-1.83-1.58-.31-3.73-1.2-5.39,1-2-.16-3.72-.61-5.56a5.89,5.89,0,0,1-.11-3c.87-2.9,1.88-5.76,3-8.57C124.11,219.38,125.7,215.86,127.28,212.17Z"/><path d="M400.88,197.42c1.92.73,3-.11,4.14-.78.93-.56,1.73-1.33,2.65-1.92,1.26-.81,2.42-1.91,4.2-.94.5.27,1.53-.12,2.15-.48a17.49,17.49,0,0,0,3-2.22,3.45,3.45,0,0,1,3-.88c1.82.3,2.2,1.16,1.83,3-.49,2.47-1.37,4.86-1.17,7.51a5.07,5.07,0,0,1-1.8,4.14c-2.57,2.23-5,4.6-7.55,6.86a8.54,8.54,0,0,1-1.81.92c-2,1.09-4.1,2.16-6.11,3.3-.33.19-.44.75-.68,1.19,1.37,1.14,2.94.89,4.31.76a77.09,77.09,0,0,0,22-5.74c3.14-1.3,6.18-2.84,9.29-4.23a11.22,11.22,0,0,1,2.22-.69c1.8-.41,3.65-.68,5.43-1.18s3.06.43,4.12,1.27c-.53,2.15-1.09,4-1.41,5.85a9.41,9.41,0,0,1-1.42,3.08c-1.86,3.26-4.64,5.56-7.63,7.67-.69.49-1.32,1.07-2.05,1.5-1.6.94-3.25,1.78-4.85,2.71-.86.5-1.64,1.15-2.5,1.65-1.52.9-3.08,1.74-4.63,2.59a11,11,0,0,0-1.47.69c-2.46,1.88-4.89,3.8-7.33,5.71-.31.24-.57.61-.91.71-4.11,1.23-7.87,3.4-12.48,3.24a52,52,0,0,1-10.37-1.31c-3.16-.75-6.42-1.19-9.39-2.52a40.84,40.84,0,0,1-5.22-3c-1-.62-1.85-1.42-2.81-2.09-1.37-1-2.3-.74-2.85.84-1.25,3.59-2.41,7.21-3.6,10.83-.39,1.18-.82,2.35-1.1,3.56-.53,2.26-.83,4.59-1.47,6.82a75.7,75.7,0,0,1-2.83,8.38c-1.37,3.3-2.9,6.54-4.58,9.68a81.35,81.35,0,0,1-4.48,7.05c-1.43,2.12-3,4.18-4.49,6.23a68.39,68.39,0,0,1-9.13,10.54,18.09,18.09,0,0,0-2.11,2.18,12.89,12.89,0,0,1-4.86,3.51A43.57,43.57,0,0,1,315,307.41a21.06,21.06,0,0,1-9.66-2.38c-4.09-2.06-8.18-4.12-12.24-6.23a11.25,11.25,0,0,1-2.29-1.58c-2.91-2.58-5.9-5.08-8.62-7.84a102,102,0,0,1-9-10,155.94,155.94,0,0,1-9.68-14.48c-1.81-3-2.88-6.52-4.29-9.79-1.26-2.93-2.69-5.79-3.78-8.77-1.37-3.77-2.54-7.62-3.69-11.46a50,50,0,0,1-1.67-7c-1.1-7.53-2.08-15.08-1.9-22.72.08-3.57-.1-7.16.12-10.72.28-4.64.83-9.27,1.27-13.9.21-2.17.35-4.35.66-6.5.64-4.37,1.35-8.72,2.07-13.08a105.15,105.15,0,0,1,3.61-15.14c1.11-3.46,1.8-7.06,2.87-10.54.89-2.89,2-5.71,3.11-8.52,2-5,3.91-9.92,6.06-14.8,1-2.34,2.58-4.44,3.74-6.72,2.56-5,6.24-9.24,9.37-13.85a18,18,0,0,1,3.33-3.25,38.06,38.06,0,0,1,4.27-3.24,30.93,30.93,0,0,1,3.81-1.67,22.9,22.9,0,0,1,8.22-2.42,9.48,9.48,0,0,0,2.91-.83,10.92,10.92,0,0,1,8.2.34,7.77,7.77,0,0,0,4.65.59c3.64-.7,7.28,0,10.85.85a8.89,8.89,0,0,0,1.1.37A16.76,16.76,0,0,1,335.88,85c2.07,1.34,4.26,2.51,6.41,3.74a35.27,35.27,0,0,1,8.77,7.59c3.08,3.48,5.7,7.36,8.52,11.07a11.57,11.57,0,0,0,1.75,2.15c3.48,2.66,5.49,6.37,7.07,10.27s2.9,8.2,4.24,12.34,2.46,8,3.71,12A32.06,32.06,0,0,1,378,154.89a32,32,0,0,0,.46,6c.94,5.86.59,11.76.86,17.65a49,49,0,0,0,.79,6c.41,2.34,1.67,3,3.84,2.11,1.92-.83,3.8-1.77,5.66-2.72,1.67-.85,3.3-1.75,4.92-2.68,1.29-.73,2.65-1.74,4.11-1a7.93,7.93,0,0,1,3.72,4.26c1.44,3.59.26,6.85-.71,10.18C401.39,195.62,401.15,196.47,400.88,197.42Zm-46-28.74h0c0-1.17,0-2.34,0-3.5.12-7.42-.26-14.72-2.76-21.85-2.2-6.3-3.82-12.8-6-19.12a29.88,29.88,0,0,0-3.77-7.21c-3-4.28-6.1-8.44-9.36-12.49-2-2.53-4.2-5.1-7.49-6.12a24.37,24.37,0,0,0-10.79-1c-1.35.2-2.48.4-3.63-.74a3.23,3.23,0,0,0-2.57-.5,9.26,9.26,0,0,0-3.54,1.6c-1.66,1.27-3.05,2.88-4.64,4.24-4.63,4-7.84,9-10.91,14.14-4,6.61-6.58,13.85-9.34,21-.76,2-1.5,3.93-2.13,5.93-.82,2.58-1.56,5.19-2.27,7.8-1.22,4.5-2.43,9-3.56,13.52-.25,1-1,2.2.14,3s2.07,0,3.05-.47a47.61,47.61,0,0,1,12.1-4.1c2.39-.41,4.77-.37,7.15-.57a46.72,46.72,0,0,1,11.08.64,43.77,43.77,0,0,1,9.69,2.34c2.38.94,4.91,1.54,7.21,2.63,5.39,2.53,10.71,5.23,16,7.95,2.41,1.24,4.73,2.65,7,4.07,2.05,1.27,4,2.68,6,4,2.26,1.43,3.54.75,3.65-1.87,0-.78,0-1.56,0-2.34C355.24,176,355.07,172.34,354.91,168.68ZM331.6,268.63c-.66.25-1.21.43-1.75.66-1.79.76-3.5,1.85-5.36,2.24a105.63,105.63,0,0,1-13.07,2.14c-6.78.55-13.15-.69-18.17-5.85a2.35,2.35,0,0,0-.77-.51,8.36,8.36,0,0,1-3.36-2.8c-1-1.3-2.12-2.48-3.1-3.78a31.33,31.33,0,0,1-5-8.61,27,27,0,0,1-1.38-9.14c.06-3.54,0-7.14,1.17-10.59,1-2.94,2-5.9,2.75-8.91s1.33-6.22,3.15-8.92c1.11-1.66,2.38-3.22,3.35-5a9.72,9.72,0,0,1,4.69-4.34,8.24,8.24,0,0,0,3.18-2.63,10.28,10.28,0,0,1,4.59-3.43c2-.74,4-1.69,6-2.63,1.68-.8,2.87-.73,4.17.68a9.33,9.33,0,0,0,3.65,2.38,2.9,2.9,0,0,1,1.52,1.22,36.07,36.07,0,0,1,1.88,4.49,2.06,2.06,0,0,1-.05,1.68c-1.82,1.91-3.18,4.17-6.42,4.48-3.87.36-6.41,4.39-6,8.35a4.19,4.19,0,0,1,.12,1.84c-1,2.49-1.11,5.12-1.58,7.7a7.81,7.81,0,0,0,.34,4.3c.87,2.32,2.62,3.25,5,2.42,3.66-1.28,7.28-2.72,10.92-4.06s6.24-3.94,8.75-6.71c.83-.92,1.68-1.84,2.49-2.78,1.61-1.88,3.37-3.66,4.27-6a4,4,0,0,1,2.54-2.52,22.94,22.94,0,0,1,7.52-1.11c1.39,0,2.49-.32,3.11-1.55.81-1.6.87-4.45-.43-5.72-1.56-1.52-3-3.15-4.67-4.55-4.66-4-10.13-6.65-15.43-9.57-5-2.76-10.27-5.12-15.43-7.64a39.47,39.47,0,0,0-12.62-3.94,32.5,32.5,0,0,0-4.4-.36,28.21,28.21,0,0,0-6,.46,30.94,30.94,0,0,0-7.4,2.58,55.86,55.86,0,0,0-6.64,4.7c-2.18,1.59-4.62,2.84-6.29,5.07a2.09,2.09,0,0,1-1.18.71c-2,.42-2.54,1.92-2.66,3.62-.26,3.8-.58,7.61-.59,11.41a144.56,144.56,0,0,0,1.42,20.46c.81,5.86,1.8,11.62,4.28,17.06,1.77,3.89,3,8,5,11.78,2.44,4.58,5.46,8.85,8.23,13.25a4.53,4.53,0,0,0,.49.49c.93,1.13,1.84,2.28,2.79,3.39a53.08,53.08,0,0,0,4.14,4.7c2.87,2.68,5.94,5.14,8.87,7.76,3.37,3,7.25,3.16,11.33,2.14,1.2-.29,2.3-.94,3.47-1.35a8.87,8.87,0,0,0,3.75-2.68,102.4,102.4,0,0,0,9.61-12.25C331.18,271.66,332.1,270.46,331.6,268.63Z"/><path d="M328.3,2C334,1.3,338.82,3.9,343.66,6.1c5.43,2.47,10.84,5,15.61,8.77,1.19.93,2.88,1.23,4.07,2.17,2.31,1.83,4.44,3.89,6.6,5.9,5.09,4.74,8.44,10.71,11.63,16.75A47,47,0,0,1,384,46.47l3.2,9.24a9.54,9.54,0,0,1,.58,1.76c.57,4.47,1.13,8.94,1.63,13.42a2.49,2.49,0,0,1-1.71,3c-.51.18-.91.77-1.31,1.22a5.91,5.91,0,0,1-4.13,2.34,3.72,3.72,0,0,1-3.33-1.26A7.94,7.94,0,0,0,374,73.29a4.09,4.09,0,0,1-2-1.43c-1.55-1.74-2.88-3.7-4.54-5.32a22.11,22.11,0,0,0-4.5-3.2,13.74,13.74,0,0,1-3.66-2.78c-3.41-3.87-6.92-7.71-8.41-12.75-1-3.37-3.22-5.56-5.78-7.65a35.23,35.23,0,0,1-4.26-3.92,10.25,10.25,0,0,0-7.86-3.9,10,10,0,0,1-6.16-2.42c-2.11-1.65-4.49-2.43-7.2-1.42-1,.38-2.1.58-3.15.86A50.43,50.43,0,0,0,309,32c-6.22,2.77-10.53,7.77-15.35,12.2-1.09,1-2.11,2.06-3.14,3.12a3.43,3.43,0,0,1-3.09,1.24,3.67,3.67,0,0,0-2.12.69,5,5,0,0,1-4.23.58c-1-.26-2-.11-3-.32A20.39,20.39,0,0,1,272.8,48a4.35,4.35,0,0,1-2.24-4.19c0-2.86,1.19-4.82,3-7a185.29,185.29,0,0,1,15.9-16,55.44,55.44,0,0,1,14.55-10C308,9,312,7,316,5.09a37.19,37.19,0,0,1,6.31-2.43A39.62,39.62,0,0,1,328.3,2Z"/><path d="M147.1,4.15a25.47,25.47,0,0,1,9.5.93C161,6.26,165.67,6.52,169.7,9a17.58,17.58,0,0,0,5.16,2.08c3.22.78,5.78,2.65,8.35,4.54,1.85,1.37,3.6,2.9,5.34,4.42a97.38,97.38,0,0,1,8.3,8.45c2.4,2.68,4.18,5.76,6.35,8.57a16.91,16.91,0,0,1,2.67,6.14,3.27,3.27,0,0,1-.13,1.83,3.23,3.23,0,0,0,1.1,3.72,5.36,5.36,0,0,1-1.59,8.87,6.33,6.33,0,0,1-1.72.69,2.82,2.82,0,0,1-1.89-.22,5.1,5.1,0,0,0-3.39-1.22,19.88,19.88,0,0,1-4.09-.69,4,4,0,0,1-1.19-.7c-1.09-.72-2.17-1.47-3.27-2.18-4-2.59-8.12-5.16-12.16-7.76a5,5,0,0,1-1.42-1.2c-1.66-2.31-4-3.58-6.52-4.73-.91-.43-1.8-.91-2.67-1.43a15.66,15.66,0,0,0-9.36-1.92,17.5,17.5,0,0,1-5.49-.75,7.68,7.68,0,0,0-4.11-.22c-5.75,1.6-11.56,3-17.24,4.89a36.72,36.72,0,0,0-7,3.69c-3.4,2-6.79,4.07-10.08,6.26a39.29,39.29,0,0,0-5,4.11,3.08,3.08,0,0,1-3.44.65,5.84,5.84,0,0,0-3-.13,2.91,2.91,0,0,0-2.63,2,3.19,3.19,0,0,1-1.05,1.48c-.55.35-1.46.76-1.91.53A14,14,0,0,1,92.46,56a5.06,5.06,0,0,1-.78-3.5,27.53,27.53,0,0,1,1.18-5.66c.83-2.73,1.83-5.41,2.82-8.1a4.21,4.21,0,0,1,1-1.55c4-4,8-8,12.21-11.79,2.93-2.65,6.14-5,9.29-7.36,2.73-2,5.49-4.08,8.35-5.94a54.17,54.17,0,0,1,14.2-6.86A56.48,56.48,0,0,1,147.1,4.15Z"/></svg>