<svg id="Ebene_1" data-name="Ebene 1" xmlns="http://www.w3.org/2000/svg" viewBox="0 0 390.68 262.46"><defs><style>.cls-1{fill:none;stroke:#1d1d1b;stroke-width:3px;}</style></defs><path class="cls-1" d="M44.25,16.5c21.46-26.38,77.59-9,105.54,1.19,23.39,22.5,16.08,57.44,13.17,87.48-13.69,25.35,8.29,51,12,77.66,2.84,18,8.43,52.69-10.17,59.74-3.92,5.82-7,10.66-15.33,8.65-20.44.75-40.18.35-59.59-4.49-8.12,8.53-22.2,3.2-33.45,4.37-6.13,5.14-13.62-.3-20.48-.73,1.38-8,13.16-10.78,20-11.84,6.88,1.11,10-17.31,16.57-17.91-1.67-15.47,6.3-52.08-15-50.71C53,178.22,42.27,185.31,42.29,195c-5.09,2.28-10.92,0-16.39.73-20.53.39-23.82,3.07-13.94-18.13,20.11-17.87,34.15-42.32,30.6-71.73.57-71.43-26.42-75.2-40.21-4"/><path class="cls-1" d="M233.94,251.23c-8-8.48,1.95-28.64-4.49-39.36-8-18.16-13-37.17-21.94-54.31-11.67-44.43-18.91-90.92-26-135.93,10.56.45,36.62-8.09,36.79,7.68,2.67,19.34,13.68,38.07,18.12,57.27,17,39.53,26.27,81.46,37.85,121.75,5.45,16.23-3.24,31.27,1.91,47.16"/><path class="cls-1" d="M292,20.77c-.31-9.15,11-.83,15.18-5.21.87-4,5.29-5.06,8.49-2.48,7,4.87,14.64,1.9,20.9,7.92,6.83-.1,13.72-2.88,18.86,3.84,10,12.51,25.79,12.8,31.12,28.91,2.32,21.83,8.46,46.27-8.65,64.1-29.13,18.32-19.6,2.09-49,5.24-29,9.39-64.64,2.58-96.18,4.28-3.9.46-8.8-2.31-10,3.41-10.18,2.84-22.58,0-33.57.95"/><path class="cls-1" d="M313.05,37.84c-11.36,26-9.56,60.67-.27,89.62,9.32,22.33,51.36,115.3,24.65,129.07-24.11,17.54-21.92-35.57-24.57-50.14,2-21.94,4-43.59,2.84-65.78-1.79-37.29,14.87-79.88-10.56-107"/></svg>