<svg id="Ebene_1" data-name="Ebene 1" xmlns="http://www.w3.org/2000/svg" xmlns:xlink="http://www.w3.org/1999/xlink" viewBox="0 0 157.42 89.05"><defs><style>.cls-1,.cls-3{fill:none;}.cls-2{clip-path:url(#clip-path);}.cls-3{stroke:#1d1d1b;}</style><clipPath id="clip-path"><rect class="cls-1" width="157.42" height="89.05"/></clipPath></defs><g class="cls-2"><path class="cls-3" d="M24.06,2.41c.16-.75.62-1,1.36-1.22A2,2,0,0,1,26.69,1q3,0,6.08,0c3.93,0,7.88.11,11.8,0a10.67,10.67,0,0,1,3.19.21q3.69,1.15,7.35,2.39c1.32.31,2.64.64,4,1a5,5,0,0,0,.4.62,8.25,8.25,0,0,0,1.18.94c2,1.61,2.9,3.54,4.09,5.68,1.55,2.79,3.49,5.43,4.33,8.54.3,1.5.55,3,.75,4.51s.48,2.8.71,4.21a20.54,20.54,0,0,1,.11,3.92,11.27,11.27,0,0,0,.57,3,4.08,4.08,0,0,1,0,2.56,2,2,0,0,0-.74,1.22,14.33,14.33,0,0,1-1,3.14,14,14,0,0,1-2.11,2.18,7.26,7.26,0,0,1-1.94,1.63,8.29,8.29,0,0,0-2.9,1.58,16.94,16.94,0,0,1-2,1.44,20.83,20.83,0,0,1,3.95-.11c.73,0,1.91-.32,2.15.65a1.74,1.74,0,0,0,.07,1.25,1.87,1.87,0,0,1,.67.67,21.42,21.42,0,0,1,3.17,8,11.76,11.76,0,0,1,.13,2.44c0,.77,0,1.54,0,2.31a16.33,16.33,0,0,1-.7,3.8c-.41,1.68-.71,3.68-1.7,5.16S65.16,76.83,64,77.76l-3.43,2.55a14.06,14.06,0,0,1-5.18,2c-3.81,1-7.84.71-11.75.42-3.6-.27-7.18-.9-10.8-.39l-2,.37L26.51,83a15.18,15.18,0,0,1-3.25.52c-1.79,0-3.58,0-5.37,0"/><path class="cls-3" d="M43.7,10.17c0,.37,0,.74,0,1.11a20.51,20.51,0,0,1-3.15,5.93q-4,6.6-7.61,13.42-5.68,9.59-12.1,18.68l-5.4,7.92A114,114,0,0,0,8.22,69.88Q5.57,75,2.47,79.91A11.06,11.06,0,0,0,.92,83.14c0-.21.09-.42.13-.63"/><path class="cls-3" d="M76.4,83.31l0-1.35.15-.48a9.48,9.48,0,0,0,.8-3.77,42.6,42.6,0,0,1,2.24-9.38l2-5.09a18.62,18.62,0,0,0,1.89-8.49c.68-8.78-.16-17.7,1-26.45a64.89,64.89,0,0,1,1.62-6.46c.55-2.39.68-4.83,1.3-7.18a32.31,32.31,0,0,1,3.68.05l6.77,0,1.74-.2c0-.34.12-.48.37-.43.1.33.18.66.26,1l.63.79a19.87,19.87,0,0,1,2.43,5.75q3.24,9.75,6.19,19.59l3.6,12.29q1.45,5.1,3.15,10.11l.48,5.33c.23,1.43.47,2.86.7,4.29.28,1.67.57,3.35.86,5,.22.83.6,1.53.83,2.34.17.57.5.77.68,1.33"/><path class="cls-3" d="M80.55,1.72c-.14-.38,0-.61.28-.72Q84,1,87.14,1a28.2,28.2,0,0,1,9.65,1.41l6.07,1.29a73.44,73.44,0,0,0,11.94.82l10.33-.06c1.12,0,2.24,0,3.36-.07l1.43.15A49.71,49.71,0,0,0,135.41,6,33.79,33.79,0,0,1,142,7.92a72,72,0,0,0,7.48,2.33,5,5,0,0,1,2.37,2.86c1.53,2.58,3.36,5.37,4.1,8.31a24.86,24.86,0,0,1,.49,4.56l-.35,3.69q-.7,4.38-1.78,8.7a30,30,0,0,1-2,5.16L151,45.41a13.84,13.84,0,0,1-3.43,1.46,44.75,44.75,0,0,1-15.83,2.58,37.29,37.29,0,0,0-8.64.5,31.07,31.07,0,0,1-6.25.13,4.23,4.23,0,0,0-2.12.17l-.91.37a14.57,14.57,0,0,1-3.67.17l-4.46-.06c-1,.1-1.67.6-2.65.74l-3.36,0H94.85c-3.42,0-6.84,0-10.26,0l-1.87,0c-.74.11-.84.49-1.49.7"/><path class="cls-3" d="M139.78,18.4a18.18,18.18,0,0,1-1.37,4.68,80.74,80.74,0,0,1-5.77,12.14Q127,45.81,121.94,56.71q-3.07,6.81-6.42,13.48-2.14,3.94-4.65,7.68c-2.16,3.51-4,7.22-6.2,10.67"/></g></svg>