<svg id="Ebene_1" data-name="Ebene 1" xmlns="http://www.w3.org/2000/svg" viewBox="0 0 350 350"><path d="M159.42,62.77c1.37-8.6-5.5-14.33-11-18.63-6.88-4.3-13.76,1.43-20.63,2.87,4.12,5.73,9.62,11.46,12.38,18.63,6.87-1.43,12.37-4.3,19.25-2.87M108.53,25.5c4.13,5.74,9.63,10,13.76,15.77,4.12-2.87,9.62-2.87,13.75-5.73,6.88-5.74-4.13-15.77-11-14.34-5.5,0-11,4.3-16.51,4.3m66,21.51c5.5,5.73,4.12,17.2-2.75,20.06-17.88,5.74-37.14,7.17-56.39,11.47,0-4.3,4.13-1.43,5.5-2.86s2.75-4.31,1.38-5.74c-5.51-7.17-8.26-14.33-13.76-20.07a32.8,32.8,0,0,1-9.62-10c-5.5-7.17-13.76-11.47-22-7.17l-1.37-1.43C94.78,24.07,112.66,14,131.91,12.6c11-1.43,28.88,8.6,22,22.94,8.25,0,16.5,4.3,20.63,11.47"/><path d="M222.68,58.47c1.38,7.17-2.75,14.34-1.37,21.51-17.88-4.3-35.76-10-53.64-14.34,0-4.3,2.75-1.43,5.5,0-1.37-20.07-5.5-40.14-13.75-58.77h-5.5A5.09,5.09,0,0,1,152.54,4c17.88,2.87,35.76,2.87,53.64,4.3,2.75,7.17,6.88,14.34,6.88,21.5-4.13-4.3-5.5-11.47-9.63-12.9C196.55,14,188.3,14,180.05,14c1.37,7.17,6.88,12.91,6.88,20.07,8.25,1.44,17.87,0,26.13,4.3,1.37,1.44,1.37,5.74,1.37,8.61-8.25-2.87-17.88-4.3-26.13-5.74,2.75,7.17,2.75,15.77,4.13,22.94,6.87,1.43,15.13,5.73,22,4.3,4.13,0,6.88-5.74,6.88-11.47Z"/><path d="M239.19,51.31c4.12,2.86,9.63,5.73,13.75,10a18.42,18.42,0,0,0,4.13-22.94c-4.13-4.3-9.63-5.73-15.13-8.6,1.37,7.17-1.38,14.34-2.75,21.51m24.75,60.2,1.38,1.44-1.38,1.43c-5.5-4.3-13.75-7.17-15.12-12.9-4.13-12.9-4.13-27.24-8.26-40.14a4.73,4.73,0,0,0-2.75-1.43c-1.37,4.3-1.37,8.6-2.75,11.46-5.5,7.17-4.12,15.77,1.38,21.51-11-7.17-20.63-15.77-30.26-24.37,2.75,1.43,6.88,4.3,8.25,2.86,9.63-17.2,12.38-35.83,11-54.47-1.37-2.87-4.12-4.3-8.25-5.73V8.3c16.51,10,34.38,17.2,50.89,28.67C275,42.7,275,51.31,275,59.91c-1.38,8.6-9.63,15.77-17.88,11.46,5.5,12.91,6.87,25.81,6.87,40.14"/><path d="M295.57,131.58c-5.5,5.74-11,11.47-17.87,15.77-11-14.33-16.51-30.1-26.14-45.87l1.38-1.43c1.38,4.3,5.5,8.6,8.25,5.73a120.37,120.37,0,0,0,30.26-44.44c1.37-4.3-2.75-7.17-4.13-11.47,8.25,7.17,11,15.77,19.26,22.94-11,17.2-20.63,34.4-34.39,48.74,1.38,5.73,4.13,11.47,8.26,12.9,4.12,2.87,9.62-1.43,13.75-4.3Z"/><path d="M335.46,131.58a5,5,0,0,0-1.38-2.86c-16.5,15.77-33,28.67-52.26,38.7a5.42,5.42,0,0,1-1.37,4.3c-2.75-10-4.13-21.5-5.5-31.54,4.12,1.44,1.37,8.61,5.5,5.74,17.87-5.74,33-18.64,45.38-33,1.38-2.87-1.37-7.17-1.37-10l1.37-1.43c2.75,10,8.25,18.64,11,28.67Z"/><path d="M343.71,209c-2.75,0-1.37-2.86-2.75-4.3h-5.5C316.2,213.29,295.58,219,275,220.46c1.37-2.86,0-8.6,1.37-8.6,17.88-15.77,33-28.67,49.51-44.44a5.4,5.4,0,0,0,1.38-4.3c-13.76,5.73-28.88,8.6-42.64,14.34-2.75,1.43,1.38,8.6-4.12,8.6,2.75-10,1.37-20.07,4.12-30.11,5.5,0-1.37,5.74,2.75,7.17,1.38,0,1.38,1.43,2.75,1.43,16.51-1.43,31.64-7.16,45.39-15.76,4.12-1.44,4.12-8.61,6.88-12.91,0,10,1.37,20.07-1.38,28.67-5.5,15.77-19.25,25.81-30.26,38.71,12.38-1.43,22-8.6,33-12.9Z"/><path d="M280.45,256.3a62.35,62.35,0,0,0-8.26,10h20.63c-5.5-2.86-6.87-7.16-12.37-10m-2.75-28.67c0,1.43-1.38,4.3-1.38,5.73,9.63,15.77,24.76,25.81,38.51,38.71,0,0-2.75,4.3-5.5,5.73-27.51,5.74-56.39,2.87-82.52-4.3,8.25-5.73,12.38-14.33,20.63-20.07a4.76,4.76,0,0,0,2.75,1.44c-1.37,1.43-4.13,2.86-4.13,4.3,2.76,7.16,11,5.73,16.51,4.3,5.5,0,6.87-10,13.75-12.9-2.75-1.44-4.13-4.3-6.88-7.17-1.37-1.43,0-8.6-6.87,0L261.19,242c1.38-4.31,5.5-7.17,9.63-10,1.37-1.43,2.75-4.3,4.13-5.73a4.73,4.73,0,0,0,2.75,1.43"/><path d="M239.19,302.17c-5.5,1.44-11,4.3-16.51,5.74,2.75,8.6,8.25,17.2,17.88,14.33,4.13-1.43,11-1.43,15.13-5.73-6.88-4.3-9.63-10-16.5-14.34m-63.27-14.33c-1.37,0-4.12,0-2.75-1.44,5.5-2.86,12.38-5.73,19.26-4.3,13.75,1.44,24.75,11.47,38.5,15.77,1.38,0,1.38-1.43,2.76-1.43-8.26-7.17-11-24.37-26.13-18.64,11-8.6,23.37-7.16,35.75-12.9l1.38,1.44c-2.75,1.43-8.25,2.86-6.88,7.16,1.38,2.87,4.13,5.74,6.88,8.6,4.12,2.87,6.87,7.17,9.63,10,9.62,7.17,16.5,22.93,31.63,14.33l1.37,1.44c-22,8.6-41.26,30.1-66,24.37-6.88-1.44-9.63-7.17-13.75-11.47-4.13-5.74-1.38-12.9,5.5-15.77-13.76-1.43-24.76-11.47-37.14-17.2"/><path d="M185.55,282.1c-2.75,0-8.25,0-6.88,2.87,0,18.64,9.63,34.41,17.88,50.18,5.5,0,11,1.43,15.13-1.44,1.38-1.43,0-5.73,0-8.6,5.5,2.87,5.5,10,9.63,15.77H207.55c-15.12,2.87-28.88,2.87-44,4.3-2.76-7.17-8.26-11.47-9.63-18.64h2.75c4.12,10,12.38,11.47,22,10-1.37-4.3-4.12-8.6-6.87-12.9-4.13-8.61-5.5-18.64-9.63-27.24-1.38-4.3-1.38-7.17-2.75-11.47-2.75-4.3-4.13-7.17-9.63-5.73v-2.87c12.38,2.87,24.76,1.43,35.76,5.73"/><path d="M104.41,292.14c-5.5-1.43-8.26-11.47-13.76-5.74-4.12,5.74-8.25,12.91-4.12,21.51,2.75,5.73,9.62,4.3,13.75,8.6,2.75-8.6,1.38-17.2,4.13-24.37m30.25-17.2v1.43c-2.75-1.43-5.5-2.87-6.87-1.43-9.63,15.77-11,34.4-12.38,51.6,0,4.3,6.88,5.74,6.88,10-15.13-8.6-33-12.9-45.39-25.81-9.63-10-11-28.67,1.38-37.27,11-7.16,19.25,7.17,27.5,10,2.75-8.6,9.63-21.5,1.38-28.67l1.37-1.44c8.25,8.61,17.88,14.34,26.13,21.51"/><path d="M63.15,259.17c-2.75-4.3-5.5-11.47-9.63-12.9-8.25-2.87-12.38,10-11,17.2,0,5.73,5.5,10,9.63,14.33,1.37-7.16,6.87-12.9,11-18.63m1.37-64.51c0-1.43-1.37-1.43-1.37-2.87l1.37-1.43c4.13,5.73,6.88,12.9,11,18.63-4.13,12.91-8.26,25.81-9.63,40.14,0,1.44,1.37,1.44,1.37,2.87,6.88-8.6,22-15.77,13.76-28.67l1.37-1.43c6.88,11.46,12.38,22.93,17.88,34.4l-1.37,1.43c-1.38-2.86-2.75-7.16-5.51-5.73-15.12,8.6-24.75,25.8-31.63,43-1.37,4.3,4.13,7.16,4.13,11.46-12.38-14.33-24.76-27.23-33-43-6.88-11.47-2.75-30.11,11-34.41,4.13-1.43,8.26,1.44,11,4.3,0-12.9,4.12-27.23,9.62-38.7"/><path d="M10.89,207.56v2.87c16.5-10,30.25-25.81,49.51-31.54,5.5,0,4.12-5.73,6.87-7.17C70,178.89,70,187.49,71.4,196.09c0,2.87,6.88,5.74-1.38,7.17,0-1.43,0-4.3-1.37-5.73-2.75-2.87-5.5-1.44-8.25,0-4.13,2.86-8.25,4.3-12.38,7.16-9.63,10-33,14.34-27.51,33l-1.37,1.44C15,229.06,13.64,219,9.51,209Z"/><path d="M56.27,180.32c-8.25-7.16-17.88-11.46-27.5-17.2-2.76-1.43-6.88-1.43-9.63-4.3-1.38-1.43-4.13-1.43-5.5-1.43,1.37,10-1.38,21.5-2.75,31.53,0,1.44-2.75,2.87-5.51,4.31C4,174.59,6.76,154.52,6.76,135.88c19.25,0,38.51,10,55,18.64,1.38-8.6,6.88-17.2,2.75-24.37-1.37-4.3-8.25-4.3-13.75-5.73,6.88-5.74,16.5-1.44,24.76-2.87-1.38,20.07-6.88,38.7-12.38,58.77Z"/><path d="M86.53,78.54c5.5,2.87,12.38,5.74,19.25,8.6A245.8,245.8,0,0,1,87.9,108.65C81,115.81,76.9,124.42,71.4,133a4.72,4.72,0,0,0-2.75-1.44l4.13-4.3c-17.88-8.6-38.51-8.6-57.77-10-1.37,0-2.75,2.87-2.75,5.73H9.51c9.63-15.77,17.88-33,26.13-48.74,6.88,0,15.13-1.43,22,1.44-5.5,2.86-12.38,0-16.51,4.3-4.12,5.73-6.87,12.9-11,20.07,6.88,2.86,13.75,0,20.63,2.86,2.75-10,8.25-15.77,15.13-24.37a64.17,64.17,0,0,1,6.88,2.87c-6.88,7.17-9.63,15.77-15.13,22.94,8.25,0,15.13,2.86,22,4.3,4.13-7.17,11-11.47,13.75-18.64,0-4.3-4.12-7.17-8.25-10Z"/><path d="M201.05,230.46c.68,4.74,5.12,7.13,8.62,8.89,4.2,1.63,6.79-2.12,10.07-3.56-3-2.66-6.76-5.19-9.32-8.75-3.28,1.44-5.63,3.51-9.37,3.42m32,14.94c-3-2.66-6.53-4.42-9.56-7.08-1.65,1.94-4.46,2.48-6.1,4.42-2.59,3.74,4.64,8,7.92,6.59,2.81-.54,4.93-3.39,7.74-3.93m-37.16-5c-3.74-2.52-4.88-8.8-1.83-11,8.21-4.83,17.81-7.49,26.94-11.68.7,2.3-1.87,1.17-2.34,2.08s-.72,2.57.22,3.2c4,3.29,6.52,6.86,10.25,9.39a20.68,20.68,0,0,1,6.53,4.42c4,3.29,8.86,4.78,12.38,1.67l.94.63c-8.68,5.73-16.19,12.86-25.79,15.51-5.39,1.85-16.13-1.76-14.93-10.11a13.9,13.9,0,0,1-12.37-4.11"/><path d="M169.44,239c-1.85-3.7-.9-7.94-2.75-11.64,9.82.55,19.87,1.86,29.69,2.41.69,2.3-1.18,1-2.81.54a110.34,110.34,0,0,0,16.48,30.09l2.81-.54a3.25,3.25,0,0,1,1.16,1.4c-9.59.22-18.72,2-28.08,3-2.56-3.57-5.81-7-7-10.83,2.8,1.89,4.66,5.59,7,6,4,.85,8.19,0,12.4-.77-1.85-3.7-5.59-6.22-6.74-10.06-4.44,0-9.13,1.76-14,.27-.93-.64-1.63-2.94-2.09-4.47,4.68.72,9.82.54,14.27.5-2.56-3.56-4-8.17-5.8-11.87-3.74-.09-8.65-1.58-11.93-.14-2.1.41-2.59,3.75-1.66,6.82Z"/><path d="M162.17,244.43c-2.57-1.13-5.84-2.12-8.63-4-2.59,3.74-1.68,9.25,1.58,12.68,2.8,1.89,5.84,2.12,9.11,3.11-1.86-3.7-1.61-7.8-2.06-11.77m-22.32-29.78-.94-.63.48-.91c3.5,1.76,8.17,2.49,9.8,5.42,4.18,6.5,6.48,14.17,10.67,20.67a2.73,2.73,0,0,0,1.63.49c0-2.43-.68-4.73-.44-6.4,1.65-4.38-.43-8.85-4.16-11.37A156.59,156.59,0,0,1,176.26,232c-1.64-.49-4.21-1.62-4.68-.72-2.15,10.15-.55,20.39,3.15,30.23,1.16,1.4,2.8,1.89,5.13,2.25l.46,1.54c-10-3.75-20.32-5.83-30.59-10.34-4.43-2.4-5.81-7-7.2-11.6-.68-4.74,2.38-9.38,7.29-7.89-4.89-6.37-7.67-13.13-10-20.8"/><path d="M120.47,207c1.88-3.61,3.77-7.22,6.59-10.2,7.92,6.59,13.27,14.49,20.72,22l-.47.9c-1.39-2.16-4.19-4.06-5.14-2.26a59,59,0,0,0-8.29,26.75c0,2.44,2.55,3.57,4,5.73-5.37-3-8.16-7.35-13.52-10.38,2.85-10.28,5-20.43,9.71-29.45-1.62-2.93-4-5.73-6.29-6.09-2.57-1.13-4.68,1.71-6.33,3.65Z"/><path d="M100.11,210.93a3.25,3.25,0,0,0,1.16,1.4c5.89-10.06,12.24-18.58,20.45-25.84a3,3,0,0,1,0-2.44,158.89,158.89,0,0,1,7.89,16.34c-2.34-.36-2.09-4.47-3.73-2.53C117.68,202.68,112,211.07,108,220c-.24,1.67,1.86,3.7,2.32,5.23l-.47.9c-3-5.09-7.22-9.16-10.23-14.26Z"/><path d="M83.44,170.33c1.4-.27,1.16,1.4,2.1,2l2.81-.54a81.94,81.94,0,0,1,28.35-14.38c-.24,1.67,1.39,4.6.68,4.73-6.59,10.2-12.24,18.58-18.12,28.64a2.89,2.89,0,0,0,0,2.44c6.1-4.42,13.36-7.44,19.46-11.86,1.17-1-2.09-4.46.72-5,.21,5.63,2.52,10.87,2.74,16.51-2.81.54-.23-3.21-2.56-3.57-.71.14-.93-.63-1.64-.49a45.86,45.86,0,0,0-20.63,12.89c-1.88,1.17-.72,5-1.44,7.58C94.29,203.94,92,198.7,92,193.83c.27-9,5.68-15.69,9.22-23.68-6.08,2-9.85,6.76-14.77,10.15-.93-3.07-2.08-6.91-3-10"/><path d="M108.13,138.8a29.6,29.6,0,0,0,2.6-6.18l-10.54,2c3.27,1,4.67,3.16,7.94,4.15m6,15.07c-.23-.76,0-2.43-.21-3.2-7.46-7.49-16.8-11.37-25.89-16.93a9.31,9.31,0,0,1,1.88-3.61c13.12-5.76,28.33-7.07,42.82-5.8-3.29,3.88-4,8.89-7.3,12.77a2.71,2.71,0,0,0-1.63-.5c.47-.9,1.64-1.94,1.41-2.71-2.56-3.56-6.54-2-9.12-.68-2.81.54-1.89,6-4.94,8.26,1.63.49,2.8,1.89,4.66,3.16.93.63,1.38,4.6,3.51-.68l.93.63c0,2.44-1.65,4.38-3.3,6.32-.47.9-.71,2.57-1.18,3.47a2.8,2.8,0,0,0-1.64-.5"/><path d="M121.81,110.21c2.58-1.31,4.93-3.38,7.51-4.69-2.79-4.33-7-8.39-11.44-5.91-1.87,1.17-5.38,1.84-6.8,4.55,4.2,1.62,6.53,4.42,10.73,6m34.61,1.46c.7-.14,2.1-.41,1.63.49-2.35,2.08-5.4,4.29-9.14,4.19-7.25.59-14.48-3.7-22.19-4.65-.71.13-.47.9-1.18,1,5.37,3,9.54,12,16.34,7.4-4.23,5.68-10.78,6.13-16.18,10.42l-.93-.64c1.17-1,3.75-2.34,2.36-4.51a24,24,0,0,0-4.9-3.92c-2.57-1.13-4.66-3.16-6.53-4.43-6.07-2.89-12.11-10.65-18.45-4.56l-.94-.63c9.85-6.77,16.23-20.16,29.79-19.52,3.74.09,6.06,2.89,8.86,4.78a5.56,5.56,0,0,1-.27,9c7.25-.59,14.49,3.7,21.73,5.56"/><path d="M152.42,115.68c1.41-.27,4.22-.81,3.05-2.21-3-10-10.44-17.46-17.19-25.09-2.81.54-5.85.32-7.5,2.25-.47.91.92,3.07,1.39,4.61-3.28-1-4.43-4.83-7.46-7.5l7-1.35c7.26-3,14.28-4.37,21.77-6.62,2.56,3.56,6.06,5.33,7.92,9l-1.41.27c-3.72-5-8.16-4.92-12.85-3.21a38.49,38.49,0,0,0,5.59,6.23c3.49,4.19,5.8,9.43,9.3,13.62,1.39,2.17,1.85,3.7,3.24,5.87,2.1,2,3.26,3.43,5.84,2.12l.46,1.53c-6.78-.31-12.87,1.67-19.18.45"/><path d="M192.24,102.34c3,.23,6,5.33,7.94,1.72,1.18-3.47,2.14-7.72-1.35-11.91-2.33-2.8-5.61-1.36-8.41-3.25,0,4.87,2.07,9.34,1.82,13.44m-12.68,12.18-.23-.77c1.63.5,3.27,1,3.74.09,2.38-9.38.08-19.49-2-28.83-.7-2.3-4.44-2.39-5.13-4.69,9.11,3.12,18.93,3.66,27.32,9.35,6.53,4.42,10.23,14.26,5.3,20.08-4.47,4.91-11-2-15.66-2.67,0,4.87-1.46,12.45,3.91,15.47l-.47.91c-5.6-3.8-11.44-5.92-16.8-8.94"/><path d="M218.61,115.93c2.09,2,4.65,5.6,7,6,4.67.72,4.7-6.59,2.85-10.29-.93-3.06-4.43-4.82-7.23-6.72.46,4-1.43,7.58-2.61,11.05m9.67,34.65c.23.77.93.63,1.17,1.4l-.48.9c-3-2.66-5.58-6.23-8.61-8.89,0-7.31.06-14.62-1.54-22.42-.23-.77-.94-.63-1.17-1.4-2.12,5.28-8.69,10.6-2.41,16.69l-.47.9c-5.35-5.46-10-11-14.66-16.65l.47-.9c1.16,1.4,2.56,3.56,3.73,2.53,6.34-6.09,8.49-16.24,9.23-26.12,0-2.44-3.26-3.43-3.95-5.73,8.63,6.45,17,12.14,23.77,19.77,5.36,5.46,6.25,15.83-.08,19.49-1.88,1.17-4.44,0-6.31-1.23a52.35,52.35,0,0,1,1.31,21.66"/><path d="M253.59,138.41l-.46-1.54c-6.81,7-11.3,16.78-20.2,21.74-2.81.54-1.19,3.47-2.36,4.51-2.56-3.56-3.94-8.16-6-12.63-.46-1.54-4.43-2.4-.45-4a5.64,5.64,0,0,0,1.62,2.93c1.87,1.27,3,.23,4.22-.81,1.64-1.94,3.52-3.11,5.16-5,3.3-6.31,14.55-10.91,8.74-20.34l.47-.9c3.72,5,6,10.19,9.76,15.16Z"/><path d="M234.8,157.44c5.37,3,11,4.38,16.81,6.5,1.64.5,3.74.09,5.61,1.36a4.24,4.24,0,0,0,3,.22c-2.32-5.23-2.76-11.64-3.67-17.14-.23-.77.94-1.8,2.12-2.84,3.7,9.83,5.52,20.84,8.52,30.81-9.83,1.89-21.28-1.58-31.09-4.57.69,4.74-.74,9.88,2.52,13.31,1.4,2.17,4.91,1.49,7.94,1.72-2.58,3.74-8.19,2.39-12.17,4-2.53-10.88-2.72-21.39-3.14-32.67l3.51-.67"/><path d="M235.73,214.87c-3.27-1-7.24-1.86-11.22-2.71a119,119,0,0,1,5.67-13.27c2.36-4.51,3.08-9.51,4.51-14.66a2.71,2.71,0,0,0,1.63.5l-1.41,2.71c10.51,2.84,21,.82,31.1-.31.71-.13.95-1.8.49-3.33l1.4-.27c-2.38,9.38-3.82,19.39-5.5,28.64-3.51.67-7.49,2.25-11.46,1.39,2.34-2.07,6.31-1.21,7.73-3.92,1.18-3.47,1.43-7.58,2.39-11.82-4-.85-7,1.35-11,.5.21,5.63-1.67,9.24-3.8,14.52a34.57,34.57,0,0,1-4-.86c2.36-4.51,2.38-9.38,4-13.76-4.21.81-8.18,0-11.92-.14-1,4.24-3.78,7.22-4,11.32.69,2.31,3.26,3.43,5.83,4.56Z"/><path d="M149.16,180.15c-2.21.15-3,2.21-3.49,3.84-.4,2,1.63,3.37,2.62,5,1-1.37,1.88-3.07,3.36-4.18-1-1.64-2.19-2.86-2.49-4.67m-4.29,14.92c1-1.36,1.54-3,2.54-4.36-1.08-.87-1.59-2.25-2.67-3.12-2-1.4-3.43,1.94-2.45,3.59.52,1.38,2.07,2.51,2.58,3.89m-.94-17.8a3.28,3.28,0,0,1,5.12-.47c3.06,4.16,5.2,8.91,8,13.49-1.05.25-.74-.95-1.21-1.21s-1.3-.45-1.52,0c-1.22,1.79-2.71,2.9-3.58,4.61a7,7,0,0,1-1.54,3,4.47,4.47,0,0,0,.32,5.94l-.22.42c-3.53-4.42-7.63-8.32-9.77-13.08-1.37-2.67-.61-7.74,3.5-6.84a5.71,5.71,0,0,1,.86-5.83"/><path d="M142.23,164.52c1.6-.75,3.73-.13,5.33-.89.63,4.74.9,9.55,1.53,14.29-1,.25-.61-.61-.51-1.38a37.67,37.67,0,0,0-13,6.83c.12.35.38,1,.51,1.38a1.05,1.05,0,0,1-.57.51c-1-4.65-2.63-9.14-3.95-13.71,1.48-1.1,2.83-2.55,4.57-3-.66,1.28-2.27,2-2.23,3.16a17,17,0,0,0,1.48,6c1.61-.76,2.49-2.47,4.22-2.88-.42-2.15-1.66-4.49-1.39-6.8.22-.43,1.26-.68,2-.85a45.08,45.08,0,0,0,1,6.89c1.48-1.1,3.57-1.59,5.17-2.35-.29-1.81,0-4.13-1-5.77-.39-1-2-1.4-3.42-1.07Z"/><path d="M139,160.79a18.57,18.57,0,0,1,1.15-4,4.62,4.62,0,0,0-5.94.28c-.66,1.28-.49,2.75-.68,4.29,1.61-.75,3.61-.48,5.47-.55m12.28-9.67.22-.43.48.26c-.53,1.63-.46,3.87-1.72,4.54-2.74,1.78-6.21,2.6-9,4.38a1.2,1.2,0,0,0-.09.78c1.17.09,2.22-.15,3,0a3.74,3.74,0,0,0,5.08-1.59,55.82,55.82,0,0,1-3.09,9c.1-.77.41-2-.07-2.24a24.12,24.12,0,0,0-14.22.38c-.57.51-.66,1.28-.62,2.4l-.7.16c.9-4.72,1-9.62,2.21-14.42.74-2.05,2.83-2.55,4.91-3,2.22-.15,4.72,1.5,4.45,3.82a21.68,21.68,0,0,1,9.08-4"/><path d="M153.15,142a30.24,30.24,0,0,1,5.49,3.58c-2.45,3.59-5.76,5.88-8.68,9.2l-.48-.26c.91-.59,1.57-1.88.62-2.4a35.62,35.62,0,0,0-13.59-5c-1.17-.1-1.48,1.1-2.39,1.7,1-2.49,2.79-3.67,3.76-6.16,5.2,1.78,10.26,3.2,15,5.83,1.27-.68,2.4-1.7,2.36-2.81.31-1.21-1.24-2.34-2.32-3.21Z"/><path d="M149.43,132a1.06,1.06,0,0,0-.56.51,71.93,71.93,0,0,1,14.24,10.89,1.45,1.45,0,0,1,1.17.1,55.46,55.46,0,0,1-7.13,3.2c0-1.12,2-.84.88-1.71-3.05-4.16-7.59-7.22-12.22-9.5-.82-.18-1.61.76-2.3.92l-.48-.26c2.18-1.27,3.75-3.14,5.93-4.41Z"/><path d="M167.42,125.49c.26.69-.57.51-.78.93.12.35.38,1,.51,1.39a55.66,55.66,0,0,1,9.46,14.28c-.83-.18-2.09.49-2.21.14-5.49-3.57-10-6.63-15.39-9.86a1.41,1.41,0,0,0-1.17-.1c2.67,3.12,4.78,6.75,7.45,9.87.6.61,2-.84,2.47.54-2.69-.11-5,.81-7.68.7-.51-1.38,1.52,0,1.48-1.1-.13-.35.22-.43.09-.77A32,32,0,0,0,153.6,131c-.73-1-2.47-.54-3.77-1,2.43-.58,4.74-1.5,7.08-1.31,4.33.48,8,3.35,12.2,5.37-1.5-3-4.14-5-6.2-7.54l4.51-1.07"/><path d="M184.78,138.64a18.81,18.81,0,0,0,3.2,1.5L186.06,135c-.19,1.54-1.1,2.14-1.28,3.68M178.09,141c.35-.08,1.17.1,1.52,0,2.92-3.33,3.94-7.7,5.78-11.89a6.1,6.1,0,0,1,1.91,1,50.45,50.45,0,0,1,6.64,21c-2.15-1.74-4.62-2.28-6.78-4a1.11,1.11,0,0,0,.09-.77c.48.26,1.08.87,1.43.79,1.48-1.11.36-3.09-.5-4.39-.51-1.38-3.07-1.15-4.41-2.71-.09.77-.65,1.28-1.09,2.14-.22.42-2.09.49.64,1.72l-.22.43a6.84,6.84,0,0,1-3.33-1.84c-.47-.26-1.3-.44-1.77-.7a1.13,1.13,0,0,0,.09-.78"/><path d="M199.74,146.36c.86,1.3,2.06,2.51,2.92,3.81,1.83-1.19,3.4-3.06,1.81-5.31-.73-1-1.37-2.68-2.8-3.47-.4,2-1.53,3-1.93,5m2.42,16.7c.13.34.38,1-.09.77a9.09,9.09,0,0,1-2.84-4.58c-.93-3.54.47-6.87.23-10.57-.12-.35-.47-.27-.6-.61-1,2.48-4.88,4.16-2.08,7.63-3.11-2.27-3.91-5.46-6.46-8.23l.22-.43c.6.61,1.47,1.91,2.38,1.31a7.82,7.82,0,0,0,1.44-2.22,13.68,13.68,0,0,1,1.54-3c.84-2.83,4-5.46.52-8.77l.22-.42c4.14,5,11.14,8.62,12.06,15.16.29,1.81-.84,2.83-1.5,4.11-1,1.37-3,1.09-4.33-.47.93,3.53-.48,6.87-.71,10.31"/><path d="M199.87,161c.26.69.77,2.07,1.34,1.56,4.51-1.07,7.44-4.39,10.49-7.37-.51-1.38-.68-2.84-1.76-3.72-.47-.26-1.39.34-2.08.5.18-1.55,1.92-2,2.92-3.32.39,1,.9,2.41,1.28,3.45,2.11,3.63,3.39,7.08,5.15,10.8-1.48,1.1-2,2.73-3.62,3.49l-.26-.69c2-1.62,1.63-3.77.38-6.11a12.33,12.33,0,0,0-2.48,2.47c-1.7,1.53-4,2.46-5.7,4-.92.59-1.61.75-2.53,1.35-.78.93-1.35,1.44-.49,2.74l-.69.17c-.46-3.27-2-6.3-1.95-9.31"/><path d="M209.86,180.76c.17,1.46-2,2.73-.1,3.78,1.77.71,3.89,1.33,5.59-.2,1.14-1,.15-2.66.81-4-2.35-.19-4.3.65-6.3.37m-7-6.6.35-.09c-.1.78-.19,1.55.29,1.81,4.72,1.51,9.36.78,13.66.14,1-.25.74-2.06,1.79-2.3-.68,4.29-.05,9-2,12.87a6.06,6.06,0,0,1-9.15,1.8c-2.77-2.35-.06-5.24-.14-7.48-2.34-.2-6.1-1.18-7.07,1.31l-.48-.27c1.32-2.56,1.81-5.31,2.78-7.79"/><path d="M205.72,193c-.79.94-2.27,2-2.23,3.16.08,2.24,3.59,2.53,5.19,1.77,1.39-.33,1.92-2,2.58-3.24-1.86.07-3.77-1-5.54-1.69M190,196.38c-.35.08-.22.43-.56.51l-.48-.26c1-1.37,2.48-2.47,3.49-3.84a48.29,48.29,0,0,0,10.62.11c.35-.08.22-.43.57-.51-2.73-1.23-5.87-4.62-8.23-1.8l-.47-.26a82.6,82.6,0,0,1,6.67-6.47l.47.26c-.57.51-1.48,1.1-.88,1.71,3.5,3.3,8.56,4.73,13.37,5.46,1.17.1,1.36-1.44,2.4-1.69-2.32,3.93-4.3,7.78-7.35,10.76-2.14,2.38-7,2.42-9.36-.78a2.8,2.8,0,0,1,0-3,24.46,24.46,0,0,1-10.28-.19"/><path d="M198.09,209.1l.69-.17c-4-3.56-9.07-6.1-12.26-10.61-.51-1.38-1.77-.7-2.37-1.31,1.48-1.1,3.56-1.6,5.52-2.44.69-.16.75-2,1.86-.06-.34.08-1,.24-1.26.67-.44.85.17,1.46.77,2.07,1.08.87,1.81,1.82,2.89,2.69,3.33,1.84,6.55,7.46,10.55,5l.48.26c-2.05,1.62-4.35,2.54-6.4,4.15Z"/><path d="M187.26,199.28c-1,2.48-1.12,5.14-1.61,7.89-.09.77.29,1.81-.14,2.66a2.11,2.11,0,0,0,.16,1.47c2.31-.93,5.34-.9,7.9-1.13.35-.08,1,.53,1.55,1.13-4.38,1.42-9.5,1.89-14,3-1.79-4.83-1.15-10.24-.61-14.88-2.21.15-4.81-.74-6.16.71-.91.6-.27,2.32-.11,3.78-2-1.39-1.88-4.06-3-6,5-.81,10-.51,15.4-.28,0,0,.38,1,.64,1.73"/><path d="M159.78,197.54c.18-1.54.23-3.44.29-5.33,2.24,1,4.49,1.94,6.87,3.25s4.85,1.86,7.44,2.74a1.13,1.13,0,0,0-.09.78l-1.42-.79c-.42,5,1.5,10.16,2.95,15.07.13.35,1,.53,1.64.36l.26.69c-4.72-1.51-9.65-2.59-14.24-3.75-.64-1.73-1.76-3.72-1.71-5.61,1.21,1.22,1.16,3.11,2.58,3.9,1.78.7,3.77,1,5.89,1.6,0-1.89-1.28-3.45-1.23-5.34-2.69-.11-4.59-1.16-7.31-2.39a15.53,15.53,0,0,1,.05-1.89c2.38,1.31,4.72,1.51,7,2.47a26.75,26.75,0,0,1-1-5.77c-2.12-.62-3.8-2.1-5.8-2.38-1,.25-1.35,1.45-1.66,2.65Z"/></svg>