<svg id="Ebene_1" data-name="Ebene 1" xmlns="http://www.w3.org/2000/svg" viewBox="0 0 513.71 215.75"><defs><style>.cls-1{fill:#1d1d1b;}</style></defs><path class="cls-1" d="M128.56,166.41c9.31,4,19.23,8.05,27.14,14.46,4.71,3.83,6.17,7.42,4.05,11.45a124.47,124.47,0,0,0-9.85,23.43l-4.07-.3c.89-2.75-.13-4.28-5.21-5.55q-3-.72-14.88-2L30.06,197.15c-7.94-.89-13.12-1.25-15.37-1-5.67.67-8.29,3.5-10.09,9l-4.08-.29a404.2,404.2,0,0,1,20.74-49.45,23.94,23.94,0,0,1,10.87-10.93c11.26-4.51,24.37-2.37,35.39,1.68,9,3.31,18.65,8.57,23.86,17C102.84,158.13,117.65,161.75,128.56,166.41Zm15.16,21a92.86,92.86,0,0,0-19.46-7.88c-9.16-2.71-19.76-5.13-29.28-2.59-2.38,4.62-3.51,7-5.65,11.84l41.49,7.87,5.26,1c.85.16,1.7.29,2.47.38C140.49,193.65,141.53,191.52,143.72,187.39Zm-114.57-10,43.29,8.21c2.08-4.72,3.17-7,5.46-11.54-2.71-4.72-9.19-8.46-20.66-11.67-7.91-2.22-14.35-3.07-19.65-2.3a26,26,0,0,0-1.41,2.52C33.23,168.33,31.82,171.28,29.15,177.34Z"/><path class="cls-1" d="M145.84,139.2a150.05,150.05,0,0,0-12.42,14.48,152.58,152.58,0,0,0,21.78,7.56c5.58,1.39,8.89,1.57,10.22.45-1.22-2.66-5.27-6.51-12.43-11.86,2.06-1.12,3.08-1.66,5.14-2.69,7.59,6.18,19.12,12.79,19.19,23.5a2,2,0,0,1-.42.67c-1.06,1.32-3.15,1.91-6.43,1.81C154.83,173,138.2,167,124.18,161c-9.53-4.1-47-18.18-35.95-35.72l.17-.21.17-.21a6.9,6.9,0,0,1,1.82-1.59c16.44-9.13,38.45,5.69,51.93,13.7Zm-44.47-2.14c2.65,2.87,9.44,5.81,15.92,8.93l3.21,1.54c2.46-3.2,3.72-4.76,6.32-7.8-9.4-5.18-11.12-6.06-14.71-7.75-2.2-1-6-2.53-7-2.85a5.83,5.83,0,0,0-4.23,1.38C98.84,132.07,99.72,135.27,101.37,137.06Z"/><path class="cls-1" d="M133.32,89.27c3.42,4.36,5.15,6.52,8.68,10.82-2.86-.54-4.86-.28-6.07.71-2.15,1.74-.74,5.92,4.25,11.06a135.89,135.89,0,0,0,13.23,11.74l37.32,29.5c-3.11,2.69-4.62,4.1-7.54,7.06l-3-2c.86-1.84.16-3-13-12.12l-41.83-28.85a98.48,98.48,0,0,0-8.5-5.47c-3.38-1.68-5.19-2-7.69-.37l-3.05-2c5-5.07,7.59-7.5,12.91-12.13l8,6.3a34.49,34.49,0,0,1-3.88-8.34c-.67-2.38-.27-3.86,1-4.87C126,88.88,129.07,88.47,133.32,89.27Z"/><path class="cls-1" d="M118.3,48.23l74.47,80.52c8.46,9.14,10.3,10.25,12.47,9.45l2.23,2.54a112,112,0,0,0-9.86,6.78l-2.53-2.34a1.61,1.61,0,0,0,.36-1.44l-88-82.83a6.42,6.42,0,0,0-2.7,1.07l-2.6-2.39C108.47,54.8,111.7,52.53,118.3,48.23Z"/><path class="cls-1" d="M167.74,64.54l47.38,66.61a2.83,2.83,0,0,0,2.25.3l1.89,2.73a112.87,112.87,0,0,0-10.45,5.73l-2.2-2.56q1.2-.89-.2-3.75c-.61-1.25-2.88-4.3-6.78-9.08L167.32,85C159.51,75.49,157.4,74.44,154,76l-2.26-2.63c5.64-3.43,8.51-5,14.33-8l.06.07ZM137.44,49.8c-5.05-6.14-6.17-13-2.35-15.08s10.78,1.54,15.38,7.92,5.53,13,2.17,14.84S142.49,55.93,137.44,49.8Z"/><path class="cls-1" d="M241.61,122c.15,0,.29,0,.47,0,.46,1.21.7,1.81,1.16,3-4,1.13-6,1.76-9.92,3.18l-1.46-2.91c.59-.7.61-2,0-4.2a92.3,92.3,0,0,0-4.45-10.25q-8.11-17-16.21-33.92c-3-6.28-5-10.16-6-11.71a8.29,8.29,0,0,0-4.08-3.42c-5.45,8.8,1.94,19.09,5.9,27.13l18.33,33.33c2.09,3.16,3.09,3.73,4.36,3.82l1.53,2.9a115.82,115.82,0,0,0-10.82,4.64l-1.85-2.75c.65-.72.61-2,0-3.8-.5-1.28-2.49-4.67-6.06-10.23L186.31,76c-7-10.9-8.35-11.7-12-11.05l-1.9-2.83c6.17-3,9.31-4.35,15.65-6.87,2.14,3.85,3.2,5.78,5.34,9.64,0-.45-.08-.67-.13-1.12a21,21,0,0,1,.41-9.72c.85-2.61,2.17-4.43,4.3-5.17a8.79,8.79,0,0,1,3.42-.11,16,16,0,0,1,4.59.88c5.25,2.2,9.09,7.35,12.71,14.58,1.13,2.37,2.94,6.68,5.33,12.78Q232.81,99.48,241.61,122Z"/><path class="cls-1" d="M256.39,117.4c1.09-.45,1.6-2.5,1.61-6.08,0-2.24-.31-7.2-.76-14.9A568.23,568.23,0,0,1,261,1c3.86-.27,5.8-.37,9.67-.51a554.51,554.51,0,0,1,19.06,119.36,122.86,122.86,0,0,0-14.74,0l-.3-4.48a4.31,4.31,0,0,0,3.07-1.53c.48-.75.66-2.66.56-5.74a60.63,60.63,0,0,0-.64-6.23c-.23-1.66-.54-3.6-1-6-.7-4.24-1.08-6.36-1.87-10.59-4.7.17-7.05.33-11.73.8.06,9.86.4,19.77,1,29.61a3.62,3.62,0,0,0,2.08.3c.26,1.78.39,2.68.64,4.46-3.8.4-5.7.66-9.47,1.32Zm6.82-45.9c3.66-.33,5.5-.46,9.17-.62-2.18-10.51-4.84-20.87-7.56-31.24C263.94,50.21,263.4,60.89,263.21,71.5Z"/><path class="cls-1" d="M329,44.38c-2.21,4.88-3.27,7.34-5.35,12.25-1-2.24-2.23-3.44-3.73-3.68-2.66-.42-5.68,3-7.75,9.41a119.76,119.76,0,0,0-3.84,15.88q-3.79,21.33-7.6,42.65c-3.94-.51-5.91-.7-9.87-.94.1-1.26.15-1.89.26-3.16,2-.5,2.7-1.67,4.22-16q2.4-22.67,4.82-45.33a78.43,78.43,0,0,0,.63-9c-.18-3.29-.82-4.67-3.39-5.44.11-1.3.16-2,.27-3.25,6.8.41,10.19.72,16.95,1.58L313,48.57A39.37,39.37,0,0,1,318.51,41c1.79-1.86,3.32-2.46,4.86-2.22C325.58,39.17,327.54,41,329,44.38Z"/><path class="cls-1" d="M361.63,15.92Q356.26,30,350.91,44.15c3.49,1,5.24,1.47,8.7,2.55l-4.55,10.49c-3.26-1-4.9-1.5-8.19-2.4L328.93,102a80.16,80.16,0,0,0-2.62,7.6c-.58,2.34-.5,3.94.71,4.29a4.57,4.57,0,0,0,2.05,0c-1.85,4.86-2.79,7.28-4.68,12.13-3.05.37-4.47.16-6.34-.59-2.54-1-2.53-7.85-1-14.88.41-2,1.9-7.22,4.47-15.75l13-43.05c-1.9-.42-2.85-.62-4.76-1,.33-1.21.5-1.81.82-3,10.54-9.88,19.19-21.08,27.62-32.75Z"/><path class="cls-1" d="M338.82,131.33l2.41-4a6,6,0,0,0,5.1-1.9q2.46-2.25,7.89-10.57,22.3-34.19,44.62-68.37c3.81-5.85,5.77-9.79,5.73-11.78s-1.35-3.92-4-5.77c1-1.59,1.45-2.39,2.41-4a289.47,289.47,0,0,1,35.47,18.34,29.71,29.71,0,0,1,8,6.5,12.76,12.76,0,0,1,2.76,9q-.45,5.1-4.69,11.74A73,73,0,0,1,433.2,83.8a97,97,0,0,1-23.76,16.72c-7.68,3.67-14.05,3.82-19.74.33-3.38-2.06-5.09-3-8.54-4.93l-18,23.47c-4.18,5.47-6.66,9.24-7.42,11.24s-.45,3.42.82,4.49l-3,3.68A113.26,113.26,0,0,0,338.82,131.33ZM390.19,84.1c3.78,2.06,5.64,3.14,9.32,5.39l.82-.26c4.57-1.65,11.19-7,19.66-16.36,5.56-6.15,9.61-11.62,11.87-16.22l-1.13-.7c-5.18-3.22-7.81-4.75-13.14-7.65Q403.9,66.19,390.19,84.1Z"/><path class="cls-1" d="M455.63,111c-5.52,2.52-8.25,3.81-13.68,6.43.77-2.37.55-4.07-.6-5.16-2-1.93-7.18-1-13.68,2.77a143.75,143.75,0,0,0-15,10.21l-37.85,29c-3.08-2.73-4.66-4-7.9-6.5l2.55-2.33c2.09.77,3.55.25,15.34-10.07l37.4-32.77a87.56,87.56,0,0,0,7.11-6.66c2.26-2.68,2.72-4.14,1.07-6.22L433,87.32c5.56,4.23,8.28,6.45,13.56,11.13l-8.09,6.24A52.28,52.28,0,0,1,448.82,102c2.94-.4,4.72,0,5.89,1.17C456.39,104.8,456.76,107.46,455.63,111Z"/><path class="cls-1" d="M472.4,125.4l-78.81,41.4a1.86,1.86,0,0,0-.13,2l-3.24,1.64a112.24,112.24,0,0,0-8.24-9.36l3-1.93q1.2,1,4.65-.18c1.5-.53,5.1-2.52,10.7-5.94l46.29-28.31c11.2-6.84,12.3-8.71,10.08-11.7l3.08-2c4.74,4.9,7,7.45,11.47,12.76l-.09,0C471.66,124.49,471.91,124.79,472.4,125.4Zm15.45-26.82c7.18-4.43,15.61-5.4,18.62-2s-.8,9.64-8.34,13.66S482.34,115,479.69,112,480.66,103,487.85,98.58Z"/><path class="cls-1" d="M498.8,164.68l-2.74.77a557.8,557.8,0,0,0-85.25,10.32c2,3.06,3,4.64,4.83,7.88,4.71,0,11.2-1,20.09-2.7l.45.82q-16.41,4.2-32.78,8.53A113.74,113.74,0,0,0,392,172.74l2-1,.2-.07,9.61-4.6c14.68-3.4,29.28-6.08,44.21-8.16,9.93-1.74,20-3.13,30.05-4.15-.74-1-1.47-1.94-2.07-2.88-3.67-5.65-5.58-8.38-9.57-13.64l11.85-5.6A244.94,244.94,0,0,1,498.8,164.68Z"/><path class="cls-1" d="M461.37,212.34a170.79,170.79,0,0,0-7.57-19.83,133.92,133.92,0,0,0-22.05,7.13c-5.07,2.27-7.38,4.15-7,5.9,3.62,1.44,10.33,2.15,20.63,2.16-.09,2.27-.16,3.4-.32,5.65-10.62-.37-29.35,1.05-37.47-7.8a3.06,3.06,0,0,1-.45-.8c-.7-1.71,0-3.42,2.27-5.29,11.32-9.82,28.8-14.53,42.9-17.88,16.06-3.83,50.17-13.46,60.69,6.21l.12.27c0,.11.06.17.11.28a6.1,6.1,0,0,1,.52,2.4c-.92,19.15-35.26,20-47.71,21.26Zm30.67-26c-4.67-.61-12.22,1.1-19.71,2.53l-3.69.71c1.76,4,2.6,6,4.2,10.15,11.54-1.55,13.57-1.9,17.67-2.73,2.52-.51,6.52-1.6,7.52-2a3.59,3.59,0,0,0,1.23-3.74C498.93,188.77,495.35,186.78,492,186.35Z"/></svg>